<?xml version="1.0" encoding="UTF-8" standalone="no"?>
<!-- Created with Inkscape (http://www.inkscape.org/) -->

<svg
   width="196mm"
   height="196mm"
   viewBox="0 0 196 196"
   version="1.1"
   id="svg1"
   inkscape:version="1.3.2 (091e20e, 2023-11-25, custom)"
   sodipodi:docname="sun_circle.svg"
   inkscape:export-filename="..\..\OneDrive\Documents\Portfolio pics\sun_circle.png"
   inkscape:export-xdpi="96"
   inkscape:export-ydpi="96"
   xmlns:inkscape="http://www.inkscape.org/namespaces/inkscape"
   xmlns:sodipodi="http://sodipodi.sourceforge.net/DTD/sodipodi-0.dtd"
   xmlns="http://www.w3.org/2000/svg"
   xmlns:svg="http://www.w3.org/2000/svg">
  <sodipodi:namedview
     id="namedview1"
     pagecolor="#ffffff"
     bordercolor="#000000"
     borderopacity="0.25"
     inkscape:showpageshadow="2"
     inkscape:pageopacity="0.0"
     inkscape:pagecheckerboard="false"
     inkscape:deskcolor="#d1d1d1"
     inkscape:document-units="mm"
     showgrid="true"
     inkscape:zoom="0.72426347"
     inkscape:cx="287.18831"
     inkscape:cy="367.96002"
     inkscape:window-width="1920"
     inkscape:window-height="1009"
     inkscape:window-x="-8"
     inkscape:window-y="-8"
     inkscape:window-maximized="1"
     inkscape:current-layer="layer1">
    <inkscape:grid
       id="grid1"
       units="mm"
       originx="0"
       originy="0"
       spacingx="14"
       spacingy="14"
       empcolor="#0099e5"
       empopacity="0.30196078"
       color="#0099e5"
       opacity="0.14901961"
       empspacing="5"
       dotted="false"
       gridanglex="30"
       gridanglez="30"
       visible="true" />
  </sodipodi:namedview>
  <defs
     id="defs1">
    <inkscape:path-effect
       effect="copy_rotate"
       starting_point="112,98.000002"
       origin="98.000002,98.000002"
       id="path-effect1"
       is_visible="true"
       lpeversion="1.2"
       lpesatellites=""
       method="normal"
       num_copies="13"
       starting_angle="0"
       rotation_angle="60"
       gap="-0.01"
       copies_to_360="true"
       mirror_copies="false"
       split_items="false"
       link_styles="false" />
  </defs>
  <g
     inkscape:label="Layer 1"
     inkscape:groupmode="layer"
     id="layer1">
    <circle
       style="fill:#ff1cfa;fill-opacity:1;stroke-width:1;stroke-linecap:round;stroke-linejoin:round"
       id="path2"
       cx="98"
       cy="98"
       r="70" />
    <path
       style="fill:#ff1cfa;stroke-width:1;stroke-linecap:round;stroke-linejoin:round;fill-opacity:1"
       d="M 98.000001,0 84,24.110701 c 9.412323,-1.945749 18.7408,-1.926321 28,0 z M 52.457129,11.22531 51.265546,39.080401 c 7.429963,-6.097 15.698948,-10.414957 24.792768,-13.012249 z M 17.347581,42.329657 29.237392,67.547871 C 32.982881,58.696369 38.298049,51.03022 45.143205,44.504322 Z M 0.71453023,86.187408 22.961923,102.99156 C 22.164891,93.413326 23.308601,84.155206 26.33695,75.195709 Z m 5.65387847,46.563872 27.5083663,4.54046 c -5.156963,-8.1107 -8.446721,-16.83987 -9.928937,-26.18046 z m 26.6455723,38.60278 26.467503,-8.7634 C 51.145989,157.80555 44.176407,151.60508 38.523183,144.02322 Z m 41.533086,21.79824 19.363255,-20.05967 c -9.604466,-0.3633 -18.657225,-2.61462 -27.186371,-6.70083 z m 46.905873,0 7.82312,-26.76051 c -8.67317,4.14173 -17.73523,6.35532 -27.18637,6.70084 z m 41.53308,-21.79824 -5.5092,-27.33084 c -5.75495,7.69794 -12.7503,13.86932 -20.9583,18.56743 z m 26.64558,-38.60278 -17.57943,-21.64 c -1.51835,9.49065 -4.84444,18.20604 -9.92894,26.18045 z m 5.65387,-46.563874 -25.62242,-10.991701 c 3.0661,9.109162 4.17123,18.371966 3.37503,27.795845 z M 178.65242,42.329655 150.8568,44.504319 c 6.94813,6.640879 12.23132,14.329101 15.90581,23.043548 z M 143.54287,11.225309 119.94169,26.06815 c 9.23843,2.651249 17.48936,7.003611 24.79276,13.012249 z"
       id="path1"
       sodipodi:nodetypes="cccc"
       inkscape:path-effect="#path-effect1"
       inkscape:original-d="M 98.000001,0 84,24.110701 c 9.412323,-1.945749 18.7408,-1.926321 28,0 z" />
  </g>
</svg>
