<svg width="344" height="200" viewBox="0 0 344 200" fill="none" xmlns="http://www.w3.org/2000/svg">
<path d="M42.076 190.012L38.324 189.744C35.8227 189.744 33.9467 190.548 32.696 192.156C26.6213 197.337 18.4027 199.928 8.03999 199.928C2.67999 199.928 -7.75605e-06 198.767 -7.75605e-06 196.444V195.64C-7.75605e-06 193.675 6.16399 182.061 18.492 160.8C30.9987 139.36 44.756 115.508 59.764 89.244C74.9507 62.98 84.688 44.9346 88.976 35.108C93.4427 25.2813 95.676 17.152 95.676 10.72V7.23598C95.676 2.59065 105.235 0.267977 124.352 0.267977C134 0.267977 138.824 2.05464 138.824 5.62797C138.824 7.05731 138.109 8.48664 136.68 9.91598C122.387 33.1426 103.448 66.2853 79.864 109.344L76.112 116.044C73.6107 120.511 71.824 123.727 70.752 125.692C69.68 127.479 67.9827 130.695 65.66 135.34C63.516 139.807 61.908 143.469 60.836 146.328C57.7987 154.368 56.28 160.621 56.28 165.088C56.28 171.699 62.176 175.004 73.968 175.004H75.844C83.1693 175.004 91.2093 173.485 99.964 170.448C117.116 164.373 131.052 152.76 141.772 135.608C142.487 134 144.452 133.196 147.668 133.196C151.063 133.196 152.76 134.625 152.76 137.484C152.76 141.772 149.901 149.455 144.184 160.532C138.467 171.609 133.285 179.828 128.64 185.188C126.317 188.404 121.851 190.012 115.24 190.012C108.629 190.369 94.336 190.548 72.36 190.548L42.076 190.012ZM278.301 169.644C270.44 176.791 260.167 182.687 247.481 187.332C234.796 191.799 222.468 194.032 210.497 194.032C198.527 194.032 189.951 193.407 184.769 192.156C179.767 191.084 176.819 190.548 175.925 190.548C174.139 190.548 172.352 191.084 170.565 192.156C164.848 197.337 157.969 199.928 149.929 199.928C141.889 199.928 137.869 198.499 137.869 195.64C137.869 193.675 144.033 181.972 156.361 160.532C168.868 139.092 182.625 115.24 197.633 88.976C212.82 62.712 222.557 44.6666 226.845 34.84C231.312 25.0133 233.545 16.5266 233.545 9.37997V7.23598C233.545 2.41198 247.392 -1.95503e-05 275.085 -1.95503e-05C300.456 -1.95503e-05 316.715 1.33998 323.861 4.01998C333.152 7.59331 338.959 12.328 341.281 18.224C342.711 21.7973 343.425 26.0853 343.425 31.088C343.425 39.128 340.477 46.7213 334.581 53.868C323.683 66.732 309.568 75.2186 292.237 79.328C285.627 80.936 281.696 82.276 280.445 83.348C279.195 84.42 278.569 85.5813 278.569 86.832C278.569 87.904 279.82 89.3333 282.321 91.12C285.001 92.728 287.86 94.5146 290.897 96.48C294.113 98.4453 296.972 101.661 299.473 106.128C302.153 110.595 303.493 116.312 303.493 123.28C303.493 130.069 301.26 137.663 296.793 146.06C292.505 154.457 286.341 162.319 278.301 169.644ZM254.985 154.904C260.167 148.651 264.187 142.308 267.045 135.876C270.083 129.444 271.601 124.084 271.601 119.796C271.601 115.329 270.887 111.577 269.457 108.54C268.207 105.324 266.688 102.912 264.901 101.304C263.115 99.696 260.971 98.4453 258.469 97.552C254.717 96.1226 250.965 95.408 247.213 95.408H244.533C242.211 95.408 241.049 94.604 241.049 92.996C241.049 89.244 242.389 85.3133 245.069 81.204C247.928 76.916 251.144 74.772 254.717 74.772C269.189 74.772 282.143 69.948 293.577 60.3C305.012 50.652 310.729 40.3786 310.729 29.48C310.729 20.0106 304.476 15.276 291.969 15.276C281.607 15.276 274.371 17.7773 270.261 22.78C259.005 36.716 242.747 62.712 221.485 100.768C200.224 138.645 189.593 160.889 189.593 167.5C189.593 170.18 191.023 172.503 193.881 174.468C196.919 176.433 202.279 177.416 209.961 177.416C217.823 177.416 225.952 175.272 234.349 170.984C242.925 166.517 249.804 161.157 254.985 154.904Z" fill="#FFFCF8"/>
</svg>
