<svg width="1128" height="407" viewBox="0 0 1128 407" fill="none" xmlns="http://www.w3.org/2000/svg">
<path d="M65.8707 237.984L62.1187 237.716C59.6174 237.716 57.7414 238.52 56.4907 240.128C50.416 245.309 42.1974 247.9 31.8347 247.9C26.4747 247.9 23.7947 246.739 23.7947 244.416V243.612C23.7947 241.647 29.9587 230.033 42.2867 208.772C54.7934 187.332 68.5507 163.48 83.5587 137.216C98.7454 110.952 108.483 92.9067 112.771 83.08C117.237 73.2533 119.471 65.124 119.471 58.692V55.208C119.471 50.5627 129.029 48.24 148.147 48.24C157.795 48.24 162.619 50.0267 162.619 53.6C162.619 55.0293 161.904 56.4587 160.475 57.888C146.181 81.1147 127.243 114.257 103.659 157.316L99.9067 164.016C97.4054 168.483 95.6187 171.699 94.5467 173.664C93.4747 175.451 91.7774 178.667 89.4547 183.312C87.3107 187.779 85.7027 191.441 84.6307 194.3C81.5934 202.34 80.0747 208.593 80.0747 213.06C80.0747 219.671 85.9707 222.976 97.7627 222.976H99.6387C106.964 222.976 115.004 221.457 123.759 218.42C140.911 212.345 154.847 200.732 165.567 183.58C166.281 181.972 168.247 181.168 171.463 181.168C174.857 181.168 176.555 182.597 176.555 185.456C176.555 189.744 173.696 197.427 167.979 208.504C162.261 219.581 157.08 227.8 152.435 233.16C150.112 236.376 145.645 237.984 139.035 237.984C132.424 238.341 118.131 238.52 96.1547 238.52L65.8707 237.984ZM206.688 251.384C196.325 251.384 188.732 248.257 183.908 242.004C179.084 235.929 176.672 228.425 176.672 219.492C176.672 210.38 178.637 200.911 182.568 191.084C186.499 181.079 191.859 171.431 198.648 162.14C205.616 152.849 214.639 145.077 225.716 138.824C236.972 132.392 249.032 129.176 261.896 129.176C267.792 129.176 272.259 131.052 275.296 134.804C278.333 138.377 279.852 142.665 279.852 147.668C279.852 158.031 276.189 167.679 268.864 176.612C261.539 185.545 253.409 192.335 244.476 196.98C235.543 201.625 227.592 204.305 220.624 205.02C213.835 205.556 209.279 206.807 206.956 208.772C204.633 210.737 203.472 214.668 203.472 220.564C203.472 226.46 204.812 230.927 207.492 233.964C210.172 237.001 212.852 239.056 215.532 240.128C218.212 241.2 219.552 242.272 219.552 243.344C219.552 245.845 218.212 247.811 215.532 249.24C212.852 250.669 209.904 251.384 206.688 251.384ZM253.856 154.368C253.856 148.829 251.355 146.06 246.352 146.06C239.205 146.06 231.255 151.063 222.5 161.068C213.924 171.073 209.636 180.096 209.636 188.136C209.636 190.101 211.155 191.084 214.192 191.084C221.517 191.084 229.915 187.332 239.384 179.828C249.032 172.324 253.856 163.837 253.856 154.368ZM318.272 226.728L318.808 221.1C318.808 219.671 318.272 218.956 317.2 218.956C315.592 218.956 312.287 221.279 307.284 225.924C302.46 230.569 296.296 235.215 288.792 239.86C281.467 244.684 274.052 247.096 266.548 247.096C259.223 247.096 255.56 241.647 255.56 230.748C255.56 217.169 261.456 201.536 273.248 183.848C279.323 174.915 286.291 166.696 294.152 159.192C302.192 151.509 311.93 145.256 323.364 140.432C334.799 135.429 346.77 132.928 359.276 132.928C365.887 132.928 371.515 134.715 376.16 138.288C380.806 141.683 383.128 145.971 383.128 151.152C383.128 156.155 381.61 158.656 378.572 158.656C376.964 158.656 374.82 157.673 372.14 155.708C367.138 152.313 359.276 150.616 348.556 150.616C334.442 150.616 321.042 157.048 308.356 169.912C295.85 182.597 289.596 195.193 289.596 207.7C289.596 209.308 290.043 210.827 290.936 212.256C292.008 213.685 293.438 214.4 295.224 214.4C300.584 214.4 307.463 210.737 315.86 203.412C324.258 195.908 332.476 185.188 340.516 171.252C341.052 169.644 343.018 168.125 346.412 166.696C349.807 165.267 353.827 164.552 358.472 164.552C365.083 165.088 368.388 166.517 368.388 168.84C368.388 169.019 367.674 170.18 366.244 172.324C364.994 174.289 362.671 177.952 359.276 183.312C355.882 188.672 351.058 197.516 344.804 209.844C338.73 221.993 335.156 231.641 334.084 238.788C333.906 240.932 333.012 242.004 331.404 242.004C322.65 242.004 318.272 236.912 318.272 226.728ZM474.765 136.948C482.448 136.948 486.289 141.415 486.289 150.348C486.289 159.281 483.163 170.537 476.909 184.116C467.797 203.233 457.435 219.76 445.821 233.696C440.283 240.307 433.315 243.612 424.917 243.612C422.237 243.612 420.897 242.897 420.897 241.468L421.969 238.52C430.367 226.192 437.781 213.507 444.213 200.464C450.824 187.243 454.129 177.684 454.129 171.788C454.129 170.716 453.772 169.823 453.057 169.108C452.521 168.393 451.539 167.947 450.109 167.768C442.784 167.768 432.868 173.753 420.361 185.724C408.033 197.695 397.313 209.755 388.201 221.904C379.268 234.053 373.461 242.451 370.781 247.096C368.28 251.92 365.689 254.779 363.009 255.672C360.329 256.744 355.952 257.28 349.877 257.28C343.803 257.28 340.765 256.208 340.765 254.064C340.765 253.349 341.659 251.652 343.445 248.972C345.053 246.292 351.396 234.232 362.473 212.792C373.729 191.352 385.521 169.555 397.849 147.4C410.356 125.067 423.935 102.287 438.585 79.06C453.415 55.8333 468.155 36.8947 482.805 22.244C497.635 7.41466 510.499 -9.53674e-06 521.397 -9.53674e-06C529.795 -9.53674e-06 533.993 4.91332 533.993 14.74C533.993 33.6787 525.328 53.9573 507.997 75.576C490.845 97.1947 475.123 111.309 460.829 117.92C457.613 119.349 454.219 120.064 450.645 120.064C447.251 120.064 445.553 119.26 445.553 117.652L447.161 114.972C464.671 102.823 478.517 88.7973 488.701 72.896C499.064 56.9947 504.245 45.828 504.245 39.396C504.245 37.252 503.977 35.8227 503.441 35.108C502.905 34.2147 501.655 33.768 499.689 33.768C493.257 33.768 482.716 44.22 468.065 65.124C453.593 86.028 440.551 107.557 428.937 129.712C417.324 151.867 411.517 165.356 411.517 170.18C411.517 172.145 412.143 173.128 413.393 173.128C414.823 173.128 416.699 172.235 419.021 170.448C421.701 167.947 425.096 164.82 429.205 161.068C433.493 157.316 440.551 152.403 450.377 146.328C460.383 140.075 468.512 136.948 474.765 136.948ZM651.501 217.616C643.64 224.763 633.366 230.659 620.681 235.304C607.996 239.771 595.668 242.004 583.697 242.004C571.726 242.004 563.15 241.379 557.969 240.128C552.966 239.056 550.018 238.52 549.125 238.52C547.338 238.52 545.552 239.056 543.765 240.128C538.048 245.309 531.169 247.9 523.129 247.9C515.089 247.9 511.069 246.471 511.069 243.612C511.069 241.647 517.233 229.944 529.561 208.504C542.068 187.064 555.825 163.212 570.833 136.948C586.02 110.684 595.757 92.6387 600.045 82.812C604.512 72.9853 606.745 64.4987 606.745 57.352V55.208C606.745 50.384 620.592 47.972 648.285 47.972C673.656 47.972 689.914 49.312 697.061 51.992C706.352 55.5653 712.158 60.3 714.481 66.196C715.91 69.7693 716.625 74.0573 716.625 79.06C716.625 87.1 713.677 94.6933 707.781 101.84C696.882 114.704 682.768 123.191 665.437 127.3C658.826 128.908 654.896 130.248 653.645 131.32C652.394 132.392 651.769 133.553 651.769 134.804C651.769 135.876 653.02 137.305 655.521 139.092C658.201 140.7 661.06 142.487 664.097 144.452C667.313 146.417 670.172 149.633 672.673 154.1C675.353 158.567 676.693 164.284 676.693 171.252C676.693 178.041 674.46 185.635 669.993 194.032C665.705 202.429 659.541 210.291 651.501 217.616ZM628.185 202.876C633.366 196.623 637.386 190.28 640.245 183.848C643.282 177.416 644.801 172.056 644.801 167.768C644.801 163.301 644.086 159.549 642.657 156.512C641.406 153.296 639.888 150.884 638.101 149.276C636.314 147.668 634.17 146.417 631.669 145.524C627.917 144.095 624.165 143.38 620.413 143.38H617.733C615.41 143.38 614.249 142.576 614.249 140.968C614.249 137.216 615.589 133.285 618.269 129.176C621.128 124.888 624.344 122.744 627.917 122.744C642.389 122.744 655.342 117.92 666.777 108.272C678.212 98.624 683.929 88.3507 683.929 77.452C683.929 67.9827 677.676 63.248 665.169 63.248C654.806 63.248 647.57 65.7493 643.461 70.752C632.205 84.688 615.946 110.684 594.685 148.74C573.424 186.617 562.793 208.861 562.793 215.472C562.793 218.152 564.222 220.475 567.081 222.44C570.118 224.405 575.478 225.388 583.161 225.388C591.022 225.388 599.152 223.244 607.549 218.956C616.125 214.489 623.004 209.129 628.185 202.876ZM763.889 202.072C760.495 202.072 757.904 200.375 756.117 196.98C754.331 193.407 753.437 190.012 753.437 186.796C753.437 183.401 754.509 179.56 756.653 175.272C756.653 172.949 755.76 171.788 753.973 171.788C747.005 171.788 739.055 175.987 730.121 184.384C721.188 192.603 713.684 201.179 707.609 210.112C701.535 218.867 695.996 227.711 690.993 236.644C687.956 242.004 681.703 244.684 672.233 244.684C667.409 244.684 664.997 243.612 664.997 241.468C664.997 236.644 673.752 218.688 691.261 187.6C708.949 156.333 720.652 139.628 726.369 137.484C730.3 135.519 734.677 134.536 739.501 134.536C744.504 134.536 747.005 135.608 747.005 137.752C747.005 139.717 744.951 143.648 740.841 149.544C736.732 155.44 734.677 159.192 734.677 160.8C734.677 162.408 735.303 163.212 736.553 163.212C737.268 163.212 739.233 162.14 742.449 159.996C750.311 154.1 759.959 148.025 771.393 141.772L773.805 138.556C778.093 133.196 784.257 130.516 792.297 130.516C800.516 130.516 804.625 132.124 804.625 135.34C804.268 136.233 803.375 137.663 801.945 139.628C787.831 158.924 775.949 179.113 766.301 200.196C765.587 201.447 764.783 202.072 763.889 202.072ZM833.806 226.728L834.342 221.1C834.342 219.671 833.806 218.956 832.734 218.956C831.126 218.956 827.821 221.279 822.818 225.924C817.994 230.569 811.83 235.215 804.326 239.86C797.001 244.684 789.586 247.096 782.082 247.096C774.757 247.096 771.094 241.647 771.094 230.748C771.094 217.169 776.99 201.536 788.782 183.848C794.857 174.915 801.825 166.696 809.686 159.192C817.726 151.509 827.463 145.256 838.898 140.432C850.333 135.429 862.303 132.928 874.81 132.928C881.421 132.928 887.049 134.715 891.694 138.288C896.339 141.683 898.662 145.971 898.662 151.152C898.662 156.155 897.143 158.656 894.106 158.656C892.498 158.656 890.354 157.673 887.674 155.708C882.671 152.313 874.81 150.616 864.09 150.616C849.975 150.616 836.575 157.048 823.89 169.912C811.383 182.597 805.13 195.193 805.13 207.7C805.13 209.308 805.577 210.827 806.47 212.256C807.542 213.685 808.971 214.4 810.758 214.4C816.118 214.4 822.997 210.737 831.394 203.412C839.791 195.908 848.01 185.188 856.05 171.252C856.586 169.644 858.551 168.125 861.946 166.696C865.341 165.267 869.361 164.552 874.006 164.552C880.617 165.088 883.922 166.517 883.922 168.84C883.922 169.019 883.207 170.18 881.778 172.324C880.527 174.289 878.205 177.952 874.81 183.312C871.415 188.672 866.591 197.516 860.338 209.844C854.263 221.993 850.69 231.641 849.618 238.788C849.439 240.932 848.546 242.004 846.938 242.004C838.183 242.004 833.806 236.912 833.806 226.728ZM843.827 370.912C851.509 370.912 863.569 358.495 880.007 333.66C896.623 309.004 911.363 284.348 924.227 259.692C937.091 235.036 943.523 221.457 943.523 218.956C943.523 216.276 942.808 214.936 941.379 214.936C939.949 214.936 937.537 216.365 934.143 219.224C930.748 221.904 927.085 224.941 923.155 228.336C919.403 231.731 914.489 234.768 908.415 237.448C902.519 240.307 896.623 241.736 890.727 241.736C883.401 241.736 879.739 236.287 879.739 225.388C879.739 216.633 882.151 206.807 886.975 195.908C891.799 184.831 898.409 174.2 906.807 164.016C915.204 153.653 926.192 144.988 939.771 138.02C953.349 131.052 967.911 127.568 983.455 127.568C987.385 127.568 991.673 128.283 996.319 129.712C1005.61 132.571 1010.25 137.752 1010.25 145.256C1010.25 150.616 1008.74 153.296 1005.7 153.296C1004.81 153.296 1003.29 152.671 1001.14 151.42C994.711 147.132 984.795 144.988 971.395 144.988C957.995 144.988 944.952 151.688 932.267 165.088C919.76 178.309 913.507 191.263 913.507 203.948C913.507 208.415 915.383 210.648 919.135 210.648C924.852 210.648 932.713 206.628 942.719 198.588C952.903 190.369 962.997 178.309 973.003 162.408C973.539 159.907 977.648 158.656 985.331 158.656C993.013 158.656 996.855 159.996 996.855 162.676C996.855 164.641 990.601 177.505 978.095 201.268C965.767 224.852 955.315 244.237 946.739 259.424C938.163 274.789 927.8 291.763 915.651 310.344C903.68 328.925 892.335 344.916 881.615 358.316C870.895 371.716 859.728 382.972 848.115 392.084C836.501 401.375 826.139 406.02 817.027 406.02C809.523 406.02 805.771 399.767 805.771 387.26C805.771 374.753 809.433 360.817 816.759 345.452C824.084 330.265 832.928 316.24 843.291 303.376C853.475 290.691 864.373 279.881 875.987 270.948C887.6 262.015 897.337 257.548 905.199 257.548H906.003C908.147 257.548 909.219 258.173 909.219 259.424C909.219 260.675 908.147 261.836 906.003 262.908C899.213 266.303 890.548 273.807 880.007 285.42C869.644 297.212 860.264 310.701 851.867 325.888C843.291 341.075 839.003 353.849 839.003 364.212V364.48C839.003 368.768 840.611 370.912 843.827 370.912ZM955.256 370.912C962.939 370.912 974.999 358.495 991.436 333.66C1008.05 309.004 1022.79 284.348 1035.66 259.692C1048.52 235.036 1054.95 221.457 1054.95 218.956C1054.95 216.276 1054.24 214.936 1052.81 214.936C1051.38 214.936 1048.97 216.365 1045.57 219.224C1042.18 221.904 1038.51 224.941 1034.58 228.336C1030.83 231.731 1025.92 234.768 1019.84 237.448C1013.95 240.307 1008.05 241.736 1002.16 241.736C994.831 241.736 991.168 236.287 991.168 225.388C991.168 216.633 993.58 206.807 998.404 195.908C1003.23 184.831 1009.84 174.2 1018.24 164.016C1026.63 153.653 1037.62 144.988 1051.2 138.02C1064.78 131.052 1079.34 127.568 1094.88 127.568C1098.81 127.568 1103.1 128.283 1107.75 129.712C1117.04 132.571 1121.68 137.752 1121.68 145.256C1121.68 150.616 1120.17 153.296 1117.13 153.296C1116.23 153.296 1114.72 152.671 1112.57 151.42C1106.14 147.132 1096.22 144.988 1082.82 144.988C1069.42 144.988 1056.38 151.688 1043.7 165.088C1031.19 178.309 1024.94 191.263 1024.94 203.948C1024.94 208.415 1026.81 210.648 1030.56 210.648C1036.28 210.648 1044.14 206.628 1054.15 198.588C1064.33 190.369 1074.43 178.309 1084.43 162.408C1084.97 159.907 1089.08 158.656 1096.76 158.656C1104.44 158.656 1108.28 159.996 1108.28 162.676C1108.28 164.641 1102.03 177.505 1089.52 201.268C1077.2 224.852 1066.74 244.237 1058.17 259.424C1049.59 274.789 1039.23 291.763 1027.08 310.344C1015.11 328.925 1003.76 344.916 993.044 358.316C982.324 371.716 971.157 382.972 959.544 392.084C947.931 401.375 937.568 406.02 928.456 406.02C920.952 406.02 917.2 399.767 917.2 387.26C917.2 374.753 920.863 360.817 928.188 345.452C935.513 330.265 944.357 316.24 954.72 303.376C964.904 290.691 975.803 279.881 987.416 270.948C999.029 262.015 1008.77 257.548 1016.63 257.548H1017.43C1019.58 257.548 1020.65 258.173 1020.65 259.424C1020.65 260.675 1019.58 261.836 1017.43 262.908C1010.64 266.303 1001.98 273.807 991.436 285.42C981.073 297.212 971.693 310.701 963.296 325.888C954.72 341.075 950.432 353.849 950.432 364.212V364.48C950.432 368.768 952.04 370.912 955.256 370.912Z" fill="#000927"/>
<path d="M76.0862 359.116C72.9182 359.116 70.1342 358.3 67.7342 356.668C65.3822 355.036 63.5582 352.732 62.2622 349.756C60.9662 346.78 60.3182 343.252 60.3182 339.172C60.3182 335.332 60.8942 331.924 62.0462 328.948C63.1982 325.972 64.9022 323.644 67.1582 321.964C69.4142 320.284 72.2222 319.444 75.5822 319.444C78.0302 319.444 80.0942 319.9 81.7742 320.812C83.4542 321.724 84.8222 323.068 85.8782 324.844C86.9822 326.572 87.8462 328.66 88.4702 331.108H90.1262C89.7902 329.572 89.4782 328.084 89.1902 326.644C88.9502 325.156 88.7582 323.74 88.6142 322.396C88.4702 321.052 88.3982 319.876 88.3982 318.868V306.628H98.7662V339.532V358.108H90.1262V347.164H88.6862C88.1582 349.852 87.3422 352.084 86.2382 353.86C85.1342 355.636 83.7182 356.956 81.9902 357.82C80.3102 358.684 78.3422 359.116 76.0862 359.116ZM79.5422 350.62C81.1262 350.62 82.4702 350.284 83.5742 349.612C84.6782 348.94 85.5902 348.076 86.3102 347.02C87.0302 345.916 87.5582 344.74 87.8942 343.492C88.2302 342.196 88.3982 340.996 88.3982 339.892V338.524C88.3982 337.612 88.2542 336.676 87.9662 335.716C87.7262 334.708 87.3662 333.724 86.8862 332.764C86.4062 331.804 85.8062 330.964 85.0862 330.244C84.3662 329.476 83.5262 328.876 82.5662 328.444C81.6062 328.012 80.5502 327.796 79.3982 327.796C77.6702 327.796 76.2062 328.276 75.0062 329.236C73.8062 330.196 72.8702 331.54 72.1982 333.268C71.5262 334.948 71.1902 336.916 71.1902 339.172C71.1902 341.476 71.5262 343.492 72.1982 345.22C72.9182 346.948 73.9022 348.292 75.1502 349.252C76.3982 350.164 77.8622 350.62 79.5422 350.62ZM125.167 359.116C122.047 359.116 119.263 358.684 116.815 357.82C114.415 356.956 112.375 355.708 110.695 354.076C109.015 352.444 107.719 350.428 106.807 348.028C105.943 345.628 105.511 342.916 105.511 339.892C105.511 336.916 105.919 334.18 106.735 331.684C107.599 329.14 108.847 326.956 110.479 325.132C112.111 323.26 114.103 321.82 116.455 320.812C118.807 319.804 121.471 319.3 124.447 319.3C127.327 319.3 129.895 319.78 132.151 320.74C134.407 321.652 136.279 323.044 137.767 324.916C139.303 326.788 140.407 329.092 141.079 331.828C141.799 334.516 142.063 337.612 141.871 341.116L112.207 341.404V335.716L135.895 335.5L132.223 338.38C132.559 335.836 132.391 333.748 131.719 332.116C131.047 330.484 130.063 329.284 128.767 328.516C127.519 327.748 126.127 327.364 124.591 327.364C122.767 327.364 121.159 327.844 119.767 328.804C118.375 329.764 117.295 331.18 116.527 333.052C115.759 334.876 115.375 337.084 115.375 339.676C115.375 343.756 116.263 346.756 118.039 348.676C119.863 350.596 122.239 351.556 125.167 351.556C126.511 351.556 127.639 351.388 128.551 351.052C129.511 350.668 130.279 350.188 130.855 349.612C131.479 349.036 131.959 348.388 132.295 347.668C132.679 346.948 132.991 346.228 133.231 345.508L142.231 347.452C141.799 349.228 141.151 350.836 140.287 352.276C139.471 353.668 138.367 354.892 136.975 355.948C135.583 356.956 133.903 357.724 131.935 358.252C130.015 358.828 127.759 359.116 125.167 359.116ZM156.651 358.108L144.051 320.38H155.499L163.491 349.9H164.643L172.635 320.38H183.651L170.979 358.108H156.651ZM205.219 359.116C202.099 359.116 199.315 358.684 196.867 357.82C194.467 356.956 192.427 355.708 190.747 354.076C189.067 352.444 187.771 350.428 186.859 348.028C185.995 345.628 185.563 342.916 185.563 339.892C185.563 336.916 185.971 334.18 186.787 331.684C187.651 329.14 188.899 326.956 190.531 325.132C192.163 323.26 194.155 321.82 196.507 320.812C198.859 319.804 201.523 319.3 204.499 319.3C207.379 319.3 209.947 319.78 212.203 320.74C214.459 321.652 216.331 323.044 217.819 324.916C219.355 326.788 220.459 329.092 221.131 331.828C221.851 334.516 222.115 337.612 221.923 341.116L192.259 341.404V335.716L215.947 335.5L212.275 338.38C212.611 335.836 212.443 333.748 211.771 332.116C211.099 330.484 210.115 329.284 208.819 328.516C207.571 327.748 206.179 327.364 204.643 327.364C202.819 327.364 201.211 327.844 199.819 328.804C198.427 329.764 197.347 331.18 196.579 333.052C195.811 334.876 195.427 337.084 195.427 339.676C195.427 343.756 196.315 346.756 198.091 348.676C199.915 350.596 202.291 351.556 205.219 351.556C206.563 351.556 207.691 351.388 208.603 351.052C209.563 350.668 210.331 350.188 210.907 349.612C211.531 349.036 212.011 348.388 212.347 347.668C212.731 346.948 213.043 346.228 213.283 345.508L222.283 347.452C221.851 349.228 221.203 350.836 220.339 352.276C219.523 353.668 218.419 354.892 217.027 355.948C215.635 356.956 213.955 357.724 211.987 358.252C210.067 358.828 207.811 359.116 205.219 359.116ZM228.767 358.108V306.628H238.991V358.108H228.767ZM264.94 359.116C261.148 359.116 257.812 358.372 254.932 356.884C252.052 355.348 249.796 353.116 248.164 350.188C246.532 347.212 245.716 343.516 245.716 339.1C245.716 334.684 246.532 331.012 248.164 328.084C249.844 325.156 252.124 322.972 255.004 321.532C257.932 320.044 261.244 319.3 264.94 319.3C268.732 319.3 272.068 320.044 274.948 321.532C277.876 323.02 280.156 325.252 281.788 328.228C283.468 331.156 284.308 334.828 284.308 339.244C284.308 343.708 283.444 347.428 281.716 350.404C280.036 353.332 277.732 355.516 274.804 356.956C271.924 358.396 268.636 359.116 264.94 359.116ZM265.3 351.412C267.172 351.412 268.732 350.98 269.98 350.116C271.276 349.252 272.236 347.956 272.86 346.228C273.532 344.452 273.868 342.316 273.868 339.82C273.868 337.18 273.508 334.948 272.788 333.124C272.116 331.252 271.108 329.836 269.764 328.876C268.42 327.868 266.716 327.364 264.652 327.364C262.876 327.364 261.34 327.796 260.044 328.66C258.748 329.476 257.764 330.772 257.092 332.548C256.42 334.276 256.084 336.412 256.084 338.956C256.084 343.036 256.9 346.132 258.532 348.244C260.164 350.356 262.42 351.412 265.3 351.412ZM290.959 370.204V339.532V320.308H299.527L299.599 330.82L300.895 330.892C301.327 328.348 302.071 326.212 303.127 324.484C304.231 322.756 305.647 321.46 307.375 320.596C309.103 319.732 311.095 319.3 313.351 319.3C316.711 319.3 319.591 320.14 321.991 321.82C324.391 323.452 326.215 325.78 327.463 328.804C328.759 331.78 329.407 335.308 329.407 339.388C329.407 343.18 328.831 346.564 327.679 349.54C326.527 352.468 324.799 354.796 322.495 356.524C320.239 358.252 317.407 359.116 313.999 359.116C311.599 359.116 309.559 358.66 307.879 357.748C306.247 356.836 304.879 355.564 303.775 353.932C302.719 352.252 301.831 350.26 301.111 347.956H299.743C300.031 349.252 300.295 350.572 300.535 351.916C300.775 353.26 300.967 354.58 301.111 355.876C301.255 357.124 301.327 358.348 301.327 359.548V370.204H290.959ZM310.399 350.836C312.127 350.836 313.591 350.356 314.791 349.396C315.991 348.436 316.903 347.092 317.527 345.364C318.199 343.636 318.535 341.668 318.535 339.46C318.535 337.06 318.199 335.02 317.527 333.34C316.855 331.612 315.895 330.268 314.647 329.308C313.399 328.348 311.911 327.868 310.183 327.868C308.647 327.868 307.327 328.204 306.223 328.876C305.119 329.548 304.183 330.436 303.415 331.54C302.695 332.644 302.167 333.844 301.831 335.14C301.495 336.388 301.327 337.588 301.327 338.74V340.108C301.327 341.02 301.447 341.98 301.687 342.988C301.927 343.948 302.311 344.908 302.839 345.868C303.367 346.78 303.991 347.62 304.711 348.388C305.431 349.108 306.271 349.708 307.231 350.188C308.191 350.62 309.247 350.836 310.399 350.836ZM353.862 359.116C350.742 359.116 347.958 358.684 345.51 357.82C343.11 356.956 341.07 355.708 339.39 354.076C337.71 352.444 336.414 350.428 335.502 348.028C334.638 345.628 334.206 342.916 334.206 339.892C334.206 336.916 334.614 334.18 335.43 331.684C336.294 329.14 337.542 326.956 339.174 325.132C340.806 323.26 342.798 321.82 345.15 320.812C347.502 319.804 350.166 319.3 353.142 319.3C356.022 319.3 358.59 319.78 360.846 320.74C363.102 321.652 364.974 323.044 366.462 324.916C367.998 326.788 369.102 329.092 369.774 331.828C370.494 334.516 370.758 337.612 370.566 341.116L340.902 341.404V335.716L364.59 335.5L360.918 338.38C361.254 335.836 361.086 333.748 360.414 332.116C359.742 330.484 358.758 329.284 357.462 328.516C356.214 327.748 354.822 327.364 353.286 327.364C351.462 327.364 349.854 327.844 348.462 328.804C347.07 329.764 345.99 331.18 345.222 333.052C344.454 334.876 344.07 337.084 344.07 339.676C344.07 343.756 344.958 346.756 346.734 348.676C348.558 350.596 350.934 351.556 353.862 351.556C355.206 351.556 356.334 351.388 357.246 351.052C358.206 350.668 358.974 350.188 359.55 349.612C360.174 349.036 360.654 348.388 360.99 347.668C361.374 346.948 361.686 346.228 361.926 345.508L370.926 347.452C370.494 349.228 369.846 350.836 368.982 352.276C368.166 353.668 367.062 354.892 365.67 355.948C364.278 356.956 362.598 357.724 360.63 358.252C358.71 358.828 356.454 359.116 353.862 359.116ZM377.41 358.108V339.82V320.308H385.978L386.05 333.196H387.418C387.802 329.98 388.45 327.364 389.362 325.348C390.322 323.332 391.642 321.844 393.322 320.884C395.002 319.924 397.09 319.444 399.586 319.444C400.018 319.444 400.474 319.468 400.954 319.516C401.482 319.516 402.082 319.588 402.754 319.732L402.322 330.748C401.602 330.412 400.81 330.172 399.946 330.028C399.082 329.884 398.314 329.812 397.642 329.812C395.77 329.812 394.162 330.244 392.818 331.108C391.474 331.972 390.37 333.22 389.506 334.852C388.69 336.436 388.138 338.38 387.85 340.684V358.108H377.41ZM433.863 349.684V319.948H442.215V349.684H433.863ZM423.207 338.74V330.82H452.871V338.74H423.207ZM490.727 359.116C487.559 359.116 484.775 358.3 482.375 356.668C480.023 355.036 478.199 352.732 476.903 349.756C475.607 346.78 474.959 343.252 474.959 339.172C474.959 335.332 475.535 331.924 476.687 328.948C477.839 325.972 479.543 323.644 481.799 321.964C484.055 320.284 486.863 319.444 490.223 319.444C492.671 319.444 494.735 319.9 496.415 320.812C498.095 321.724 499.463 323.068 500.519 324.844C501.623 326.572 502.487 328.66 503.111 331.108H504.767C504.431 329.572 504.119 328.084 503.831 326.644C503.591 325.156 503.399 323.74 503.255 322.396C503.111 321.052 503.039 319.876 503.039 318.868V306.628H513.407V339.532V358.108H504.767V347.164H503.327C502.799 349.852 501.983 352.084 500.879 353.86C499.775 355.636 498.359 356.956 496.631 357.82C494.951 358.684 492.983 359.116 490.727 359.116ZM494.183 350.62C495.767 350.62 497.111 350.284 498.215 349.612C499.319 348.94 500.231 348.076 500.951 347.02C501.671 345.916 502.199 344.74 502.535 343.492C502.871 342.196 503.039 340.996 503.039 339.892V338.524C503.039 337.612 502.895 336.676 502.607 335.716C502.367 334.708 502.007 333.724 501.527 332.764C501.047 331.804 500.447 330.964 499.727 330.244C499.007 329.476 498.167 328.876 497.207 328.444C496.247 328.012 495.191 327.796 494.039 327.796C492.311 327.796 490.847 328.276 489.647 329.236C488.447 330.196 487.511 331.54 486.839 333.268C486.167 334.948 485.831 336.916 485.831 339.172C485.831 341.476 486.167 343.492 486.839 345.22C487.559 346.948 488.543 348.292 489.791 349.252C491.039 350.164 492.503 350.62 494.183 350.62ZM539.808 359.116C536.688 359.116 533.904 358.684 531.456 357.82C529.056 356.956 527.016 355.708 525.336 354.076C523.656 352.444 522.36 350.428 521.448 348.028C520.584 345.628 520.152 342.916 520.152 339.892C520.152 336.916 520.56 334.18 521.376 331.684C522.24 329.14 523.488 326.956 525.12 325.132C526.752 323.26 528.744 321.82 531.096 320.812C533.448 319.804 536.112 319.3 539.088 319.3C541.968 319.3 544.536 319.78 546.792 320.74C549.048 321.652 550.92 323.044 552.408 324.916C553.944 326.788 555.048 329.092 555.72 331.828C556.44 334.516 556.704 337.612 556.512 341.116L526.848 341.404V335.716L550.536 335.5L546.864 338.38C547.2 335.836 547.032 333.748 546.36 332.116C545.688 330.484 544.704 329.284 543.408 328.516C542.16 327.748 540.768 327.364 539.232 327.364C537.408 327.364 535.8 327.844 534.408 328.804C533.016 329.764 531.936 331.18 531.168 333.052C530.4 334.876 530.016 337.084 530.016 339.676C530.016 343.756 530.904 346.756 532.68 348.676C534.504 350.596 536.88 351.556 539.808 351.556C541.152 351.556 542.28 351.388 543.192 351.052C544.152 350.668 544.92 350.188 545.496 349.612C546.12 349.036 546.6 348.388 546.936 347.668C547.32 346.948 547.632 346.228 547.872 345.508L556.872 347.452C556.44 349.228 555.792 350.836 554.928 352.276C554.112 353.668 553.008 354.892 551.616 355.948C550.224 356.956 548.544 357.724 546.576 358.252C544.656 358.828 542.4 359.116 539.808 359.116ZM578.898 359.116C576.354 359.116 574.05 358.876 571.986 358.396C569.922 357.916 568.146 357.22 566.658 356.308C565.17 355.396 563.97 354.316 563.058 353.068C562.146 351.772 561.546 350.332 561.258 348.748L569.178 345.508C569.37 346.564 569.898 347.548 570.762 348.46C571.626 349.372 572.778 350.116 574.218 350.692C575.706 351.22 577.482 351.484 579.546 351.484C581.754 351.484 583.458 351.172 584.658 350.548C585.858 349.876 586.458 348.94 586.458 347.74C586.458 346.828 586.122 346.108 585.45 345.58C584.778 345.052 583.794 344.596 582.498 344.212C581.202 343.828 579.642 343.468 577.818 343.132C576.042 342.7 574.218 342.244 572.346 341.764C570.522 341.284 568.818 340.612 567.234 339.748C565.698 338.884 564.426 337.756 563.418 336.364C562.458 334.924 561.978 333.1 561.978 330.892C561.978 328.588 562.602 326.572 563.85 324.844C565.098 323.116 566.922 321.772 569.322 320.812C571.722 319.804 574.65 319.3 578.106 319.3C581.226 319.3 583.962 319.732 586.314 320.596C588.666 321.412 590.586 322.612 592.074 324.196C593.61 325.732 594.642 327.58 595.17 329.74L586.746 332.548C586.554 331.396 586.074 330.388 585.306 329.524C584.586 328.66 583.602 328.012 582.354 327.58C581.154 327.148 579.738 326.932 578.106 326.932C576.042 326.932 574.434 327.268 573.282 327.94C572.178 328.612 571.626 329.5 571.626 330.604C571.626 331.516 571.986 332.26 572.706 332.836C573.474 333.412 574.53 333.892 575.874 334.276C577.218 334.612 578.802 334.972 580.626 335.356C582.546 335.74 584.418 336.196 586.242 336.724C588.066 337.204 589.698 337.852 591.138 338.668C592.626 339.484 593.802 340.564 594.666 341.908C595.53 343.252 595.962 344.98 595.962 347.092C595.962 349.588 595.29 351.748 593.946 353.572C592.602 355.348 590.658 356.716 588.114 357.676C585.57 358.636 582.498 359.116 578.898 359.116ZM602.362 358.108V320.308H612.73V358.108H602.362ZM607.618 314.62C605.602 314.62 604.042 314.212 602.938 313.396C601.882 312.532 601.354 311.284 601.354 309.652C601.354 307.972 601.882 306.7 602.938 305.836C604.042 304.972 605.602 304.54 607.618 304.54C609.682 304.54 611.242 304.972 612.298 305.836C613.402 306.7 613.954 307.972 613.954 309.652C613.954 311.236 613.402 312.46 612.298 313.324C611.242 314.188 609.682 314.62 607.618 314.62ZM636.587 371.284C632.459 371.284 629.051 370.948 626.363 370.276C623.723 369.652 621.779 368.716 620.531 367.468C619.283 366.22 618.659 364.66 618.659 362.788C618.659 360.58 619.523 358.78 621.251 357.388C623.027 355.996 625.619 355.156 629.027 354.868V353.428C626.435 353.428 624.443 353.164 623.051 352.636C621.659 352.06 620.963 351.076 620.963 349.684C620.963 348.34 621.635 347.14 622.979 346.084C624.371 345.028 626.651 344.188 629.819 343.564V342.124C626.843 341.932 624.515 340.972 622.835 339.244C621.155 337.516 620.315 335.284 620.315 332.548C620.315 330.148 620.987 328.012 622.331 326.14C623.675 324.22 625.667 322.708 628.307 321.604C630.995 320.452 634.283 319.876 638.171 319.876H657.323V327.796L645.443 326.14V327.796C648.515 328.228 650.723 328.996 652.067 330.1C653.459 331.204 654.155 332.74 654.155 334.708C654.155 336.676 653.507 338.404 652.211 339.892C650.915 341.38 649.067 342.556 646.667 343.42C644.315 344.236 641.483 344.644 638.171 344.644C637.547 344.644 636.875 344.62 636.155 344.572C635.435 344.524 634.235 344.404 632.555 344.212C631.643 344.884 630.923 345.484 630.395 346.012C629.915 346.492 629.675 346.948 629.675 347.38C629.675 347.716 629.843 348.004 630.179 348.244C630.563 348.484 631.043 348.652 631.619 348.748C632.243 348.844 632.867 348.892 633.491 348.892H644.291C645.251 348.892 646.499 348.964 648.035 349.108C649.571 349.204 651.107 349.564 652.643 350.188C654.179 350.812 655.475 351.82 656.531 353.212C657.587 354.556 658.115 356.5 658.115 359.044C658.115 361.828 657.323 364.132 655.739 365.956C654.203 367.78 651.827 369.124 648.611 369.988C645.443 370.852 641.435 371.284 636.587 371.284ZM637.739 363.004C640.667 363.004 642.947 362.836 644.579 362.5C646.211 362.212 647.363 361.708 648.035 360.988C648.755 360.316 649.115 359.452 649.115 358.396C649.115 357.436 648.899 356.692 648.467 356.164C648.083 355.636 647.555 355.276 646.883 355.084C646.259 354.844 645.611 354.7 644.939 354.652C644.315 354.556 643.763 354.508 643.283 354.508H634.211C632.195 354.7 630.731 355.252 629.819 356.164C628.955 357.028 628.523 358.036 628.523 359.188C628.523 360.244 628.859 361.036 629.531 361.564C630.203 362.092 631.211 362.452 632.555 362.644C633.947 362.884 635.675 363.004 637.739 363.004ZM637.595 339.244C639.899 339.244 641.627 338.692 642.779 337.588C643.931 336.436 644.507 334.948 644.507 333.124C644.507 331.204 643.907 329.62 642.707 328.372C641.555 327.124 639.851 326.5 637.595 326.5C635.387 326.5 633.659 327.124 632.411 328.372C631.163 329.572 630.539 331.132 630.539 333.052C630.539 334.252 630.803 335.332 631.331 336.292C631.907 337.204 632.723 337.924 633.779 338.452C634.835 338.98 636.107 339.244 637.595 339.244ZM664.133 358.108V335.212V320.308H672.629L672.557 331.612H673.997C674.621 328.876 675.509 326.596 676.661 324.772C677.813 322.948 679.253 321.58 680.981 320.668C682.757 319.756 684.845 319.3 687.245 319.3C691.613 319.3 694.925 320.836 697.181 323.908C699.485 326.98 700.637 331.804 700.637 338.38V358.108H690.197V339.532C690.197 335.5 689.597 332.572 688.397 330.748C687.245 328.876 685.541 327.94 683.285 327.94C681.365 327.94 679.757 328.54 678.461 329.74C677.165 330.94 676.181 332.524 675.509 334.492C674.885 336.412 674.549 338.572 674.501 340.972V358.108H664.133ZM726.403 359.116C723.283 359.116 720.499 358.684 718.051 357.82C715.651 356.956 713.611 355.708 711.931 354.076C710.251 352.444 708.955 350.428 708.043 348.028C707.179 345.628 706.747 342.916 706.747 339.892C706.747 336.916 707.155 334.18 707.971 331.684C708.835 329.14 710.083 326.956 711.715 325.132C713.347 323.26 715.339 321.82 717.691 320.812C720.043 319.804 722.707 319.3 725.683 319.3C728.563 319.3 731.131 319.78 733.387 320.74C735.643 321.652 737.515 323.044 739.003 324.916C740.539 326.788 741.643 329.092 742.315 331.828C743.035 334.516 743.299 337.612 743.107 341.116L713.443 341.404V335.716L737.131 335.5L733.459 338.38C733.795 335.836 733.627 333.748 732.955 332.116C732.283 330.484 731.299 329.284 730.003 328.516C728.755 327.748 727.363 327.364 725.827 327.364C724.003 327.364 722.395 327.844 721.003 328.804C719.611 329.764 718.531 331.18 717.763 333.052C716.995 334.876 716.611 337.084 716.611 339.676C716.611 343.756 717.499 346.756 719.275 348.676C721.099 350.596 723.475 351.556 726.403 351.556C727.747 351.556 728.875 351.388 729.787 351.052C730.747 350.668 731.515 350.188 732.091 349.612C732.715 349.036 733.195 348.388 733.531 347.668C733.915 346.948 734.227 346.228 734.467 345.508L743.467 347.452C743.035 349.228 742.387 350.836 741.523 352.276C740.707 353.668 739.603 354.892 738.211 355.948C736.819 356.956 735.139 357.724 733.171 358.252C731.251 358.828 728.995 359.116 726.403 359.116ZM749.951 358.108V339.82V320.308H758.519L758.591 333.196H759.959C760.343 329.98 760.991 327.364 761.903 325.348C762.863 323.332 764.183 321.844 765.863 320.884C767.543 319.924 769.631 319.444 772.127 319.444C772.559 319.444 773.015 319.468 773.495 319.516C774.023 319.516 774.623 319.588 775.295 319.732L774.863 330.748C774.143 330.412 773.351 330.172 772.487 330.028C771.623 329.884 770.855 329.812 770.183 329.812C768.311 329.812 766.703 330.244 765.359 331.108C764.015 331.972 762.911 333.22 762.047 334.852C761.231 336.436 760.679 338.38 760.391 340.684V358.108H749.951Z" fill="#000927"/>
<path d="M13.5 272.108H862.5C857.27 276.405 853.319 279.09 849.384 284.108H13.5V272.108Z" fill="#000927"/>
<path d="M14 384.108H799.5C798.821 389.173 799.283 391.824 800 396.108H14V384.108Z" fill="#000927"/>
</svg>
