<?xml version="1.0" encoding="UTF-8" standalone="no"?>
<!-- Created with Inkscape (http://www.inkscape.org/) -->

<svg
   width="196mm"
   height="196mm"
   viewBox="0 0 196 196"
   version="1.1"
   id="svg1"
   inkscape:version="1.3.2 (091e20e, 2023-11-25, custom)"
   sodipodi:docname="Maze.svg"
   xml:space="preserve"
   xmlns:inkscape="http://www.inkscape.org/namespaces/inkscape"
   xmlns:sodipodi="http://sodipodi.sourceforge.net/DTD/sodipodi-0.dtd"
   xmlns="http://www.w3.org/2000/svg"
   xmlns:svg="http://www.w3.org/2000/svg"><sodipodi:namedview
     id="namedview1"
     pagecolor="#ffffff"
     bordercolor="#000000"
     borderopacity="0.25"
     inkscape:showpageshadow="2"
     inkscape:pageopacity="0.0"
     inkscape:pagecheckerboard="false"
     inkscape:deskcolor="#d1d1d1"
     inkscape:document-units="mm"
     showgrid="true"
     inkscape:zoom="0.51213161"
     inkscape:cx="290.94084"
     inkscape:cy="590.66848"
     inkscape:window-width="1920"
     inkscape:window-height="1009"
     inkscape:window-x="-8"
     inkscape:window-y="-8"
     inkscape:window-maximized="1"
     inkscape:current-layer="layer1"><inkscape:grid
       id="grid1"
       units="mm"
       originx="0"
       originy="0"
       spacingx="14"
       spacingy="14"
       empcolor="#0099e5"
       empopacity="0.30196078"
       color="#0099e5"
       opacity="0.14901961"
       empspacing="5"
       dotted="false"
       gridanglex="30"
       gridanglez="30"
       visible="true" /></sodipodi:namedview><defs
     id="defs1" /><g
     inkscape:label="Layer 1"
     inkscape:groupmode="layer"
     id="layer1"><circle
       style="display:none;opacity:0.226;fill:#bdffd1;fill-opacity:1;stroke-width:1;stroke-linecap:round;stroke-linejoin:round"
       id="path2"
       cx="98"
       cy="98"
       r="98" /><path
       style="fill:#bdffd1;fill-opacity:1;stroke:none;stroke-width:1.98633;stroke-dasharray:none;stroke-opacity:1"
       d="m 56.857147,194.49558 -0.68416,-0.55258 -0.0046,-17.23359 -0.0046,-17.23358 -0.836417,-0.71681 c -0.800451,-0.68597 -0.975951,-0.71267 -4.081697,-0.62084 -2.202535,0.0651 -3.398948,0.22328 -3.723531,0.49222 -0.423887,0.35124 -0.47825,1.32769 -0.47825,8.58996 0,10.12896 0.394524,9.34862 -4.726349,9.34862 -2.49806,0 -3.724006,-0.11428 -4.090549,-0.38131 -0.497532,-0.36248 -0.521261,-1.48662 -0.479996,-22.73811 0.03968,-20.44144 0.08454,-22.38771 0.523409,-22.71771 0.357026,-0.26846 2.528116,-0.36092 8.47459,-0.36092 6.766694,0 8.093517,-0.0691 8.638679,-0.44946 0.608858,-0.42491 0.644088,-0.65278 0.644088,-4.16608 0,-2.99376 -0.08859,-3.80486 -0.455404,-4.17035 -0.400057,-0.39855 -1.987179,-0.45372 -13.054297,-0.45372 H 29.919529 l -0.711333,0.70873 -0.711333,0.70871 v 17.00972 c 0,20.60879 0.536114,18.53128 -4.782071,18.53128 -2.868865,0 -3.671338,-0.0901 -4.036198,-0.45374 -0.392298,-0.39085 -0.455405,-1.57299 -0.455405,-8.53088 v -8.07717 l -0.711334,-0.7087 -0.711331,-0.70873 H 9.8177862 c -7.5963325,0 -8.0107906,-0.028 -8.5623403,-0.57747 -0.56943594,-0.56734 -0.57960457,-0.96246 -0.57960457,-22.52157 0,-21.559084 0.010169,-21.954197 0.57960457,-22.521549 0.5513891,-0.549357 0.9660078,-0.577469 8.5170619,-0.577469 10.0173522,0 9.3057802,0.36133 9.3057802,-4.725433 0,-2.582659 -0.107802,-3.727031 -0.376306,-3.99469 -0.286949,-0.286046 -2.34937,-0.395343 -8.685648,-0.460288 C 2.8646122,84.158761 1.6351606,84.08214 1.1914152,83.682029 0.71195049,83.249713 0.67584133,82.320399 0.67584133,70.413072 c 0,-12.419098 0.0174269,-12.821445 0.57960457,-13.381557 0.5139882,-0.512101 0.9660078,-0.577475 3.9927498,-0.577475 5.1193793,0 4.7013184,-0.810244 4.7013184,9.111612 0,7.827673 0.027175,8.239727 0.5796059,8.790133 0.551933,0.549906 0.966007,0.577473 8.673035,0.577473 h 8.093431 l 0.60064,0.760785 c 0.586676,0.743098 0.600637,1.051827 0.600637,13.281941 0,12.136166 -0.01781,12.538916 -0.579605,13.098636 -0.551548,0.54953 -0.966006,0.57748 -8.562339,0.57748 h -7.982738 l -0.711333,0.70873 -0.7113339,0.70871 v 12.57321 c 0,12.18824 0.017744,12.59092 0.5796059,13.1507 0.515204,0.51332 0.966007,0.57748 4.057232,0.57748 5.01709,0 4.636837,0.76821 4.636837,-9.36761 0,-8.15941 0.0042,-8.21556 0.644089,-8.66212 0.569178,-0.39722 3.195657,-0.44948 22.583548,-0.44948 h 21.939458 l 0.600639,0.76077 c 0.586367,0.74269 0.600638,1.05399 0.600638,13.09863 0,11.97771 -0.01725,12.35968 -0.590671,13.08602 l -0.59067,0.74814 -8.271995,0.085 c -7.800505,0.0799 -8.295424,0.11677 -8.683003,0.64528 -0.301409,0.41102 -0.411009,1.49628 -0.411009,4.06976 0,3.03305 0.0719,3.57414 0.529972,3.98715 0.480662,0.43339 2.136102,0.47786 17.790739,0.47786 16.563048,0 17.288419,0.0222 17.944924,0.55197 l 0.684163,0.55196 v 12.75547 12.75552 l -0.684163,0.55197 c -0.58648,0.47314 -1.168183,0.55194 -4.074293,0.55194 -2.468949,0 -3.54299,-0.11127 -3.952676,-0.40948 -0.531064,-0.38659 -0.566892,-0.8754 -0.640215,-8.73434 -0.09431,-10.10701 0.279857,-9.33541 -4.52679,-9.33541 -2.459921,0 -3.390627,0.10782 -3.880223,0.44949 l -0.64409,0.44947 v 12.81151 12.81151 l 0.76359,0.59842 c 0.744925,0.58382 1.060559,0.59844 12.915256,0.59844 12.081151,0 13.017936,-0.0676 13.630587,-0.98161 0.117102,-0.17475 0.21491,-3.84084 0.21735,-8.14689 0.0042,-7.43723 0.03402,-7.8666 0.59511,-8.5773 l 0.590672,-0.74817 8.271984,-0.085 c 7.80052,-0.08 8.29543,-0.11675 8.68303,-0.64527 0.3014,-0.41103 0.41098,-1.49629 0.41098,-4.06979 0,-3.03304 -0.0719,-3.57412 -0.52996,-3.98714 -0.46668,-0.42078 -1.50251,-0.47785 -8.67303,-0.47785 h -8.14307 l -0.600639,-0.76078 c -0.574181,-0.72728 -0.600637,-1.10639 -0.600637,-8.60696 0,-6.31743 -0.08009,-7.95535 -0.411017,-8.40664 -0.387897,-0.52894 -0.883632,-0.56522 -8.813799,-0.64503 -7.304709,-0.0737 -8.453412,-0.14533 -8.790206,-0.54969 -0.318138,-0.38192 -0.387428,-6.0899 -0.387428,-31.91641 0,-30.800133 0.01164,-31.459812 0.562545,-31.86116 0.470881,-0.34305 3.365366,-0.409831 17.763566,-0.409831 h 17.201035 l 0.71131,-0.708721 0.71133,-0.708719 v -7.82217 -7.822171 l 0.71135,-0.708718 0.71133,-0.708722 h 12.58748 c 11.56386,0 12.63676,0.04109 13.1938,0.505292 0.58547,0.487892 0.60904,0.787048 0.68416,8.688013 l 0.0777,8.182725 0.68417,0.551594 c 0.58392,0.470782 1.16772,0.551597 3.98478,0.551597 4.80585,0 4.45983,0.716886 4.45983,-9.23961 0,-7.699675 0.0275,-8.112159 0.5796,-8.662136 0.55193,-0.549906 0.96603,-0.577475 8.67338,-0.577475 8.75752,0 8.77614,-0.0034 9.17592,-1.590306 0.31242,-1.240222 0.002,-6.727348 -0.40347,-7.13025 -0.29936,-0.297525 -3.87334,-0.383732 -17.355,-0.418612 -9.3379,-0.02416 -17.32688,-0.113447 -17.75326,-0.198412 -1.34997,-0.268999 -1.46452,-1.0042 -1.46452,-9.399214 0,-9.46793 0.30701,-8.837671 -4.305,-8.837671 -4.06921,0 -4.56116,0.150464 -4.8098,1.471074 -0.108,0.573841 -0.16576,4.349794 -0.12826,8.391007 0.0665,7.16478 0.0528,7.363015 -0.55094,7.964565 -0.60481,0.602608 -0.79909,0.615487 -8.38124,0.555627 -5.90974,-0.04664 -7.93495,0.02841 -8.48657,0.314644 l -0.72449,0.375926 -0.14491,8.263397 c -0.13261,7.561717 -0.19111,8.314234 -0.68919,8.86204 -0.5376,0.591294 -0.7583,0.599626 -17.995857,0.6794 -14.157494,0.06552 -17.540768,0.154542 -17.924077,0.47163 -0.425593,0.352063 -0.48034,2.119043 -0.551494,17.799397 -0.07557,16.65368 -0.102937,17.43488 -0.631065,18.01618 -0.545212,0.6001 -0.709903,0.60764 -13.258457,0.60764 -12.319984,0 -12.724011,-0.0177 -13.285989,-0.57748 -0.318783,-0.3176 -0.587831,-0.86982 -0.597886,-1.22712 -0.01012,-0.35732 -0.04264,-8.14848 -0.07243,-17.313685 -0.05058,-15.564704 -0.08828,-16.698035 -0.5712,-17.179899 -0.467485,-0.466461 -1.300233,-0.52446 -8.690298,-0.605257 -6.991047,-0.07644 -8.247169,-0.155994 -8.684193,-0.550041 -0.477283,-0.430348 -0.510927,-1.608072 -0.510927,-17.884573 0,-17.038903 0.0128,-17.436647 0.579605,-18.001364 0.515205,-0.513311 0.966007,-0.577475 4.057232,-0.577475 3.091224,0 3.542027,0.06416 4.057233,0.577475 0.561856,0.559795 0.579604,0.962461 0.579604,13.150696 v 12.573221 l 0.711332,0.70872 0.711334,0.70872 h 7.85101 7.851006 l 0.711332,0.708722 0.711336,0.708718 v 17.321023 17.321021 l 0.644086,0.449479 c 0.867441,0.605351 7.086266,0.64861 7.901118,0.05497 0.517452,-0.376984 0.54361,-1.162848 0.588638,-17.685193 0.02592,-9.509873 0.150974,-17.528014 0.277904,-17.81809 0.126926,-0.290075 0.547511,-0.647387 0.934626,-0.794028 0.400834,-0.151838 7.915147,-0.266618 17.454435,-0.266618 16.415014,0 16.765624,-0.01178 17.501316,-0.588355 l 0.750728,-0.588358 0.08532,-8.099658 0.08531,-8.099659 0.684163,-0.551594 c 0.635965,-0.512743 1.239378,-0.551598 8.566225,-0.551598 6.34511,0 7.99176,-0.07981 8.44462,-0.409335 0.52837,-0.384485 0.57134,-0.91829 0.70743,-8.792645 0.10942,-6.329349 0.23708,-8.475136 0.52107,-8.758092 0.284,-0.282956 2.43768,-0.41015 8.7904,-0.519148 7.90337,-0.135605 8.43915,-0.178399 8.82504,-0.704848 0.58165,-0.793471 0.58124,-7.037295 -5.3e-4,-7.829918 -0.3965,-0.540288 -0.8763,-0.560478 -13.32057,-0.560478 -11.48959,0 -12.96059,0.0512 -13.37655,0.465664 -0.40387,0.402393 -0.47811,1.57232 -0.54654,8.610856 -0.0771,7.929383 -0.0959,8.161852 -0.71028,8.773948 l -0.63114,0.628754 -25.711842,-0.08172 c -15.760025,-0.05008 -26.148884,0.02564 -26.840997,0.195673 -0.621033,0.152567 -1.23849,0.449206 -1.372123,0.659197 -0.133635,0.209992 -0.244968,1.964189 -0.247409,3.898219 -0.0036,2.815986 0.08625,3.606791 0.450968,3.970143 0.403941,0.402448 2.428821,0.453737 17.912373,0.453737 14.619234,0 17.548395,0.06662 18.019495,0.409831 0.506628,0.369097 0.562543,0.78081 0.562543,4.14232 0,2.739162 -0.105851,3.859565 -0.397737,4.209976 -0.363694,0.436615 -2.314113,0.477485 -22.78645,0.477485 -17.595927,0 -22.453278,-0.07751 -22.690327,-0.36209 C 37.922702,46.61612 37.800768,42.224635 37.768724,34.220054 37.709247,19.364 37.651503,20.769105 38.350108,20.073067 c 0.551391,-0.549366 0.966009,-0.577476 8.517064,-0.577476 7.232991,0 7.995051,-0.04648 8.586364,-0.523523 0.642711,-0.518522 0.649242,-0.601465 0.684161,-8.6874 l 0.03529,-8.1638776 0.68416,-0.5522091 c 0.650176,-0.5247809 1.307141,-0.5522094 13.22635,-0.5522094 11.920975,0 12.576077,0.027359 13.226349,0.552421 0.653229,0.5274436 0.684163,0.7162873 0.684163,4.1766867 0,3.0640245 -0.07824,3.7021702 -0.506132,4.1282386 -0.454864,0.4529238 -1.329537,0.5091238 -8.635031,0.5548278 -7.323178,0.04582 -8.185017,0.101454 -8.695091,0.561372 -0.503136,0.453661 -0.566195,0.905192 -0.566195,4.054366 0,2.836695 0.09087,3.634386 0.455405,3.997577 0.40018,0.398713 1.999134,0.453732 13.186006,0.453732 12.344199,0 12.748194,-0.01752 13.310206,-0.577474 0.551551,-0.549524 0.579605,-0.96246 0.579605,-8.530891 V 2.4338214 L 93.834077,1.725101 94.545408,1.0163807 h 21.893242 c 21.50686,0 21.90348,0.010148 22.47286,0.577476 0.56627,0.5641656 0.5796,0.9624591 0.5796,17.2811823 0,17.225785 0.0622,18.226119 1.17064,18.817141 0.29156,0.155454 1.97316,0.282644 3.73696,0.282644 4.69651,0 4.36607,0.699244 4.36607,-9.239611 0,-9.976756 -0.36477,-9.239612 4.57237,-9.239612 5.11266,0 4.70132,-0.781181 4.70132,8.928307 0,7.68587 0.0257,8.061895 0.60062,8.790132 l 0.60064,0.760784 h 7.82269 c 7.69867,0 8.71565,0.107329 9.3016,0.981623 0.1171,0.174732 0.21491,5.973314 0.21735,12.885732 0.004,10.912569 -0.055,12.652561 -0.44669,13.209753 -0.44717,0.636093 -0.51955,0.641724 -8.24573,0.641724 -5.09528,0 -8.03914,0.111018 -8.50081,0.320578 -1.24691,0.566059 -1.34967,1.274224 -1.34967,9.30148 0,6.387495 -0.0708,7.674229 -0.45115,8.21544 l -0.45113,0.641724 h -12.87976 c -12.49338,0 -12.89717,-0.01731 -13.45938,-0.577477 -0.55194,-0.549906 -0.5796,-0.962457 -0.5796,-8.64118 V 66.89052 l -0.7636,-0.598433 c -0.64608,-0.506352 -1.17006,-0.598184 -3.40517,-0.596822 -2.12935,0.0015 -4.6677,0.347649 -4.84896,0.661622 -0.0187,0.03223 -0.0771,3.809036 -0.13,8.392888 -0.0851,7.365957 -0.15364,8.397527 -0.59068,8.878687 -0.47372,0.521531 -1.20445,0.544416 -17.38418,0.544416 -9.992322,0 -17.186019,0.112268 -17.615393,0.274916 -0.399162,0.151204 -0.871812,0.546833 -1.050334,0.879177 -0.231727,0.431397 -0.319545,6.774881 -0.306976,22.174459 l 0.0176,21.5702 0.740222,0.64965 c 0.728975,0.63979 0.86023,0.64966 8.638235,0.64966 6.360922,0 8.007496,0.0797 8.460576,0.40956 0.53051,0.38622 0.56798,0.88752 0.65825,8.80634 0.0936,8.20186 0.11011,8.4069 0.71652,8.83007 0.51554,0.3598 1.97815,0.43326 8.6259,0.43326 7.60289,0 8.03111,0.0286 8.52297,0.57016 0.48177,0.53042 0.51605,1.45978 0.49115,13.3187 -0.0241,11.55497 -0.0728,12.79914 -0.5179,13.28925 -0.45754,0.50371 -1.0413,0.54071 -8.5286,0.54071 -9.028,0 -9.1772,0.0324 -9.30172,2.02117 -0.18889,3.01654 0.0579,6.32801 0.50487,6.77331 0.41409,0.41254 1.85124,0.45361 13.35445,0.38152 12.37574,-0.0776 12.90684,-0.10307 13.30157,-0.64124 0.33169,-0.45212 0.4112,-2.11275 0.4112,-8.58994 0,-7.6445 0.0278,-8.05716 0.5796,-8.60695 0.55154,-0.54954 0.966,-0.57747 8.56232,-0.57747 h 7.98276 l 0.71132,-0.70872 0.71133,-0.70874 v -7.95339 c 0,-7.56843 0.028,-7.98137 0.57961,-8.5309 0.55155,-0.54953 0.96602,-0.57747 8.56235,-0.57747 h 7.98271 l 0.71136,-0.70873 0.71133,-0.70872 v -12.44198 -12.44197 l -0.73535,-0.73266 c -0.71774,-0.71507 -0.81816,-0.73034 -4.18847,-0.63653 -2.33126,0.0648 -3.57521,0.21787 -3.82902,0.47091 -0.2837,0.28281 -0.41148,2.43155 -0.52083,8.75809 -0.13611,7.87434 -0.17905,8.40815 -0.70745,8.79263 -0.45284,0.32953 -2.09949,0.40934 -8.4446,0.40934 -7.32688,0 -7.93027,0.0388 -8.56625,0.55161 l -0.68415,0.5516 -0.0857,8.17454 c -0.0738,7.02786 -0.15111,8.24658 -0.55208,8.68802 -0.40067,0.44111 -0.98844,0.51345 -4.17247,0.51345 -3.50123,0 -3.73101,-0.0356 -4.15721,-0.64171 -0.39597,-0.56327 -0.45115,-2.73067 -0.45115,-17.72539 0,-20.32854 0.4113,-18.39236 -3.94002,-18.54885 -1.55848,-0.056 -3.31337,0.0414 -3.90133,0.21712 -0.95877,0.2862 -1.08869,0.44412 -1.26397,1.53611 -0.10742,0.6694 -0.1738,4.4424 -0.14746,8.38445 0.0434,6.49755 -1.7e-4,7.22019 -0.46614,7.73319 -0.45942,0.5058 -0.90738,0.56586 -4.22007,0.56586 -3.50122,0 -3.731,-0.0356 -4.15721,-0.64174 -0.3816,-0.54279 -0.45115,-1.85785 -0.45115,-8.53087 v -7.88917 l -0.71133,-0.70871 -0.71131,-0.70873 h -7.96204 c -8.570791,0 -8.649945,-0.0132 -9.028474,-1.53607 -0.08607,-0.34621 -0.11887,-6.19461 -0.07289,-12.99648 0.0805,-11.910329 0.104635,-12.382312 0.653166,-12.78176 0.489514,-0.35647 6.899518,-0.412552 45.609308,-0.399074 50.46047,0.01756 45.84092,0.229685 46.34473,-2.12804 0.29481,-1.379701 -0.0961,-6.240849 -0.53705,-6.681222 -0.17605,-0.175749 -3.63204,-0.348746 -8.70617,-0.435806 -7.90336,-0.135605 -8.43915,-0.178396 -8.82502,-0.704848 -0.29859,-0.407329 -0.41087,-1.474597 -0.41087,-3.905898 0,-5.035555 -0.80165,-4.628867 9.12417,-4.628867 h 8.22191 l 0.60062,-0.760783 c 0.57442,-0.727567 0.60066,-1.105756 0.60066,-8.662133 0,-9.765074 -0.35784,-9.056303 4.57234,-9.056303 2.62012,0 3.5628,0.104436 4.05724,0.449479 l 0.64408,0.449479 v 40.650908 c 0,39.015228 -0.0214,40.670148 -0.52997,41.128788 -0.4339,0.39122 -1.18251,0.47703 -4.12967,0.47341 -1.97986,-0.002 -3.79535,-0.12754 -4.03442,-0.27806 -0.37596,-0.23664 -0.4543,-2.63957 -0.5796,-17.77813 l -0.1449,-17.50449 -0.81662,-0.69968 -0.81663,-0.69966 -40.08757,0.0751 c -38.1456,0.0715 -40.11551,0.10036 -40.6643,0.59523 -0.3172,0.28602 -0.65347,0.90232 -0.74726,1.36957 -0.28797,1.43458 0.14869,6.34269 0.60474,6.79706 0.34441,0.34313 3.18209,0.40856 17.72211,0.40856 14.4837,0 17.40397,0.0668 17.87461,0.4093 0.52802,0.38422 0.57143,0.9173 0.70744,8.68815 l 0.1449,8.27883 0.71242,0.57427 c 0.63895,0.51506 1.06741,0.56447 4.15363,0.4793 3.00741,-0.0831 3.49298,-0.16566 3.85197,-0.65548 0.33114,-0.45183 0.41075,-2.11681 0.41075,-8.58996 0,-7.64448 0.0277,-8.05715 0.5796,-8.60693 0.56205,-0.55998 0.96603,-0.57748 13.3309,-0.57748 12.36491,0 12.76887,0.0175 13.33093,0.57748 0.5694,0.56732 0.57958,0.96245 0.57958,22.48956 0,20.44596 -0.0339,21.95252 -0.50713,22.51636 -0.49007,0.58386 -0.78763,0.60684 -8.82493,0.68163 -6.34809,0.0591 -8.40688,0.16616 -8.69407,0.45221 -0.28407,0.28298 -0.41181,2.42028 -0.5212,8.72058 -0.10933,6.29755 -0.23721,8.43773 -0.52099,8.72045 -0.28331,0.28223 -2.4072,0.41024 -8.61183,0.51901 -7.40024,0.12971 -8.28825,0.19661 -8.7527,0.65952 -0.46767,0.46606 -0.52434,1.29178 -0.59475,8.66213 -0.0752,7.86468 -0.0988,8.16449 -0.68416,8.65228 -0.57104,0.47599 -2.95254,0.50538 -40.969506,0.50538 -39.32621,0 -40.38079,-0.0143 -41.047372,-0.55263 z"
       id="path1"
       sodipodi:nodetypes="scccssssssssscssscccsssscccssssssssssssssscsssscccsssssscsssccssssccccsssssscccssscscssssscssscsssscccccccssccsssssscsssscsssscsssssssssssssssssscccccccccssssssscccsssssssssscccssscsssssssssssscsssssssssssscccssssssssccsscssssscssscssssssssscssccssccssssssssscccssscccccsssssssccssssccsssssscccssssssssssscsssscsscssccccsssssscsssssssssssssssssss" /><path
       style="fill:none;fill-opacity:1;stroke:#000927;stroke-width:1.98633;stroke-dasharray:none;stroke-opacity:1"
       d="m 56.857147,194.49558 -0.68416,-0.55258 -0.0046,-17.23359 -0.0046,-17.23358 -0.836417,-0.71681 c -0.800451,-0.68597 -0.975951,-0.71267 -4.081697,-0.62084 -2.202535,0.0651 -3.398948,0.22328 -3.723531,0.49222 -0.423887,0.35124 -0.47825,1.32769 -0.47825,8.58996 0,10.12896 0.394524,9.34862 -4.726349,9.34862 -2.49806,0 -3.724006,-0.11428 -4.090549,-0.38131 -0.497532,-0.36248 -0.521261,-1.48662 -0.479996,-22.73811 0.03968,-20.44144 0.08454,-22.38771 0.523409,-22.71771 0.357026,-0.26846 2.528116,-0.36092 8.47459,-0.36092 6.766694,0 8.093517,-0.0691 8.638679,-0.44946 0.608858,-0.42491 0.644088,-0.65278 0.644088,-4.16608 0,-2.99376 -0.08859,-3.80486 -0.455404,-4.17035 -0.400057,-0.39855 -1.987179,-0.45372 -13.054297,-0.45372 H 29.919529 l -0.711333,0.70873 -0.711333,0.70871 v 17.00972 c 0,20.60879 0.536114,18.53128 -4.782071,18.53128 -2.868865,0 -3.671338,-0.0901 -4.036198,-0.45374 -0.392298,-0.39085 -0.455405,-1.57299 -0.455405,-8.53088 v -8.07717 l -0.711334,-0.7087 -0.711331,-0.70873 H 9.8177862 c -7.5963325,0 -8.0107906,-0.028 -8.5623403,-0.57747 -0.56943594,-0.56734 -0.57960457,-0.96246 -0.57960457,-22.52157 0,-21.559084 0.010169,-21.954197 0.57960457,-22.521549 0.5513891,-0.549357 0.9660078,-0.577469 8.5170619,-0.577469 10.0173522,0 9.3057802,0.36133 9.3057802,-4.725433 0,-2.582659 -0.107802,-3.727031 -0.376306,-3.99469 -0.286949,-0.286046 -2.34937,-0.395343 -8.685648,-0.460288 C 2.8646122,84.158761 1.6351606,84.08214 1.1914152,83.682029 0.71195049,83.249713 0.67584133,82.320399 0.67584133,70.413072 c 0,-12.419098 0.0174269,-12.821445 0.57960457,-13.381557 0.5139882,-0.512101 0.9660078,-0.577475 3.9927498,-0.577475 5.1193793,0 4.7013184,-0.810244 4.7013184,9.111612 0,7.827673 0.027175,8.239727 0.5796059,8.790133 0.551933,0.549906 0.966007,0.577473 8.673035,0.577473 h 8.093431 l 0.60064,0.760785 c 0.586676,0.743098 0.600637,1.051827 0.600637,13.281941 0,12.136166 -0.01781,12.538916 -0.579605,13.098636 -0.551548,0.54953 -0.966006,0.57748 -8.562339,0.57748 h -7.982738 l -0.711333,0.70873 -0.7113339,0.70871 v 12.57321 c 0,12.18824 0.017744,12.59092 0.5796059,13.1507 0.515204,0.51332 0.966007,0.57748 4.057232,0.57748 5.01709,0 4.636837,0.76821 4.636837,-9.36761 0,-8.15941 0.0042,-8.21556 0.644089,-8.66212 0.569178,-0.39722 3.195657,-0.44948 22.583548,-0.44948 h 21.939458 l 0.600639,0.76077 c 0.586367,0.74269 0.600638,1.05399 0.600638,13.09863 0,11.97771 -0.01725,12.35968 -0.590671,13.08602 l -0.59067,0.74814 -8.271995,0.085 c -7.800505,0.0799 -8.295424,0.11677 -8.683003,0.64528 -0.301409,0.41102 -0.411009,1.49628 -0.411009,4.06976 0,3.03305 0.0719,3.57414 0.529972,3.98715 0.480662,0.43339 2.136102,0.47786 17.790739,0.47786 16.563048,0 17.288419,0.0222 17.944924,0.55197 l 0.684163,0.55196 v 12.75547 12.75552 l -0.684163,0.55197 c -0.58648,0.47314 -1.168183,0.55194 -4.074293,0.55194 -2.468949,0 -3.54299,-0.11127 -3.952676,-0.40948 -0.531064,-0.38659 -0.566892,-0.8754 -0.640215,-8.73434 -0.09431,-10.10701 0.279857,-9.33541 -4.52679,-9.33541 -2.459921,0 -3.390627,0.10782 -3.880223,0.44949 l -0.64409,0.44947 v 12.81151 12.81151 l 0.76359,0.59842 c 0.744925,0.58382 1.060559,0.59844 12.915256,0.59844 12.081151,0 13.017936,-0.0676 13.630587,-0.98161 0.117102,-0.17475 0.21491,-3.84084 0.21735,-8.14689 0.0042,-7.43723 0.03402,-7.8666 0.59511,-8.5773 l 0.590672,-0.74817 8.271984,-0.085 c 7.80052,-0.08 8.29543,-0.11675 8.68303,-0.64527 0.3014,-0.41103 0.41098,-1.49629 0.41098,-4.06979 0,-3.03304 -0.0719,-3.57412 -0.52996,-3.98714 -0.46668,-0.42078 -1.50251,-0.47785 -8.67303,-0.47785 h -8.14307 l -0.600639,-0.76078 c -0.574181,-0.72728 -0.600637,-1.10639 -0.600637,-8.60696 0,-6.31743 -0.08009,-7.95535 -0.411017,-8.40664 -0.387897,-0.52894 -0.883632,-0.56522 -8.813799,-0.64503 -7.304709,-0.0737 -8.453412,-0.14533 -8.790206,-0.54969 -0.318138,-0.38192 -0.387428,-6.0899 -0.387428,-31.91641 0,-30.800133 0.01164,-31.459812 0.562545,-31.86116 0.470881,-0.34305 3.365366,-0.409831 17.763566,-0.409831 h 17.201035 l 0.71131,-0.708721 0.71133,-0.708719 v -7.82217 -7.822171 l 0.71135,-0.708718 0.71133,-0.708722 h 12.58748 c 11.56386,0 12.63676,0.04109 13.1938,0.505292 0.58547,0.487892 0.60904,0.787048 0.68416,8.688013 l 0.0777,8.182725 0.68417,0.551594 c 0.58392,0.470782 1.16772,0.551597 3.98478,0.551597 4.80585,0 4.45983,0.716886 4.45983,-9.23961 0,-7.699675 0.0275,-8.112159 0.5796,-8.662136 0.55193,-0.549906 0.96603,-0.577475 8.67338,-0.577475 8.75752,0 8.77614,-0.0034 9.17592,-1.590306 0.31242,-1.240222 0.002,-6.727348 -0.40347,-7.13025 -0.29936,-0.297525 -3.87334,-0.383732 -17.355,-0.418612 -9.3379,-0.02416 -17.32688,-0.113447 -17.75326,-0.198412 -1.34997,-0.268999 -1.46452,-1.0042 -1.46452,-9.399214 0,-9.46793 0.30701,-8.837671 -4.305,-8.837671 -4.06921,0 -4.56116,0.150464 -4.8098,1.471074 -0.108,0.573841 -0.16576,4.349794 -0.12826,8.391007 0.0665,7.16478 0.0528,7.363015 -0.55094,7.964565 -0.60481,0.602608 -0.79909,0.615487 -8.38124,0.555627 -5.90974,-0.04664 -7.93495,0.02841 -8.48657,0.314644 l -0.72449,0.375926 -0.14491,8.263397 c -0.13261,7.561717 -0.19111,8.314234 -0.68919,8.86204 -0.5376,0.591294 -0.7583,0.599626 -17.995857,0.6794 -14.157494,0.06552 -17.540768,0.154542 -17.924077,0.47163 -0.425593,0.352063 -0.48034,2.119043 -0.551494,17.799397 -0.07557,16.65368 -0.102937,17.43488 -0.631065,18.01618 -0.545212,0.6001 -0.709903,0.60764 -13.258457,0.60764 -12.319984,0 -12.724011,-0.0177 -13.285989,-0.57748 -0.318783,-0.3176 -0.587831,-0.86982 -0.597886,-1.22712 -0.01012,-0.35732 -0.04264,-8.14848 -0.07243,-17.313685 -0.05058,-15.564704 -0.08828,-16.698035 -0.5712,-17.179899 -0.467485,-0.466461 -1.300233,-0.52446 -8.690298,-0.605257 -6.991047,-0.07644 -8.247169,-0.155994 -8.684193,-0.550041 -0.477283,-0.430348 -0.510927,-1.608072 -0.510927,-17.884573 0,-17.038903 0.0128,-17.436647 0.579605,-18.001364 0.515205,-0.513311 0.966007,-0.577475 4.057232,-0.577475 3.091224,0 3.542027,0.06416 4.057233,0.577475 0.561856,0.559795 0.579604,0.962461 0.579604,13.150696 v 12.573221 l 0.711332,0.70872 0.711334,0.70872 h 7.85101 7.851006 l 0.711332,0.708722 0.711336,0.708718 v 17.321023 17.321021 l 0.644086,0.449479 c 0.867441,0.605351 7.086266,0.64861 7.901118,0.05497 0.517452,-0.376984 0.54361,-1.162848 0.588638,-17.685193 0.02592,-9.509873 0.150974,-17.528014 0.277904,-17.81809 0.126926,-0.290075 0.547511,-0.647387 0.934626,-0.794028 0.400834,-0.151838 7.915147,-0.266618 17.454435,-0.266618 16.415014,0 16.765624,-0.01178 17.501316,-0.588355 l 0.750728,-0.588358 0.08532,-8.099658 0.08531,-8.099659 0.684163,-0.551594 c 0.635965,-0.512743 1.239378,-0.551598 8.566225,-0.551598 6.34511,0 7.99176,-0.07981 8.44462,-0.409335 0.52837,-0.384485 0.57134,-0.91829 0.70743,-8.792645 0.10942,-6.329349 0.23708,-8.475136 0.52107,-8.758092 0.284,-0.282956 2.43768,-0.41015 8.7904,-0.519148 7.90337,-0.135605 8.43915,-0.178399 8.82504,-0.704848 0.58165,-0.793471 0.58124,-7.037295 -5.3e-4,-7.829918 -0.3965,-0.540288 -0.8763,-0.560478 -13.32057,-0.560478 -11.48959,0 -12.96059,0.0512 -13.37655,0.465664 -0.40387,0.402393 -0.47811,1.57232 -0.54654,8.610856 -0.0771,7.929383 -0.0959,8.161852 -0.71028,8.773948 l -0.63114,0.628754 -25.711842,-0.08172 c -15.760025,-0.05008 -26.148884,0.02564 -26.840997,0.195673 -0.621033,0.152567 -1.23849,0.449206 -1.372123,0.659197 -0.133635,0.209992 -0.244968,1.964189 -0.247409,3.898219 -0.0036,2.815986 0.08625,3.606791 0.450968,3.970143 0.403941,0.402448 2.428821,0.453737 17.912373,0.453737 14.619234,0 17.548395,0.06662 18.019495,0.409831 0.506628,0.369097 0.562543,0.78081 0.562543,4.14232 0,2.739162 -0.105851,3.859565 -0.397737,4.209976 -0.363694,0.436615 -2.314113,0.477485 -22.78645,0.477485 -17.595927,0 -22.453278,-0.07751 -22.690327,-0.36209 C 37.922702,46.61612 37.800768,42.224635 37.768724,34.220054 37.709247,19.364 37.651503,20.769105 38.350108,20.073067 c 0.551391,-0.549366 0.966009,-0.577476 8.517064,-0.577476 7.232991,0 7.995051,-0.04648 8.586364,-0.523523 0.642711,-0.518522 0.649242,-0.601465 0.684161,-8.6874 l 0.03529,-8.1638776 0.68416,-0.5522091 c 0.650176,-0.5247809 1.307141,-0.5522094 13.22635,-0.5522094 11.920975,0 12.576077,0.027359 13.226349,0.552421 0.653229,0.5274436 0.684163,0.7162873 0.684163,4.1766867 0,3.0640245 -0.07824,3.7021702 -0.506132,4.1282386 -0.454864,0.4529238 -1.329537,0.5091238 -8.635031,0.5548278 -7.323178,0.04582 -8.185017,0.101454 -8.695091,0.561372 -0.503136,0.453661 -0.566195,0.905192 -0.566195,4.054366 0,2.836695 0.09087,3.634386 0.455405,3.997577 0.40018,0.398713 1.999134,0.453732 13.186006,0.453732 12.344199,0 12.748194,-0.01752 13.310206,-0.577474 0.551551,-0.549524 0.579605,-0.96246 0.579605,-8.530891 V 2.4338214 L 93.834077,1.725101 94.545408,1.0163807 h 21.893242 c 21.50686,0 21.90348,0.010148 22.47286,0.577476 0.56627,0.5641656 0.5796,0.9624591 0.5796,17.2811823 0,17.225785 0.0622,18.226119 1.17064,18.817141 0.29156,0.155454 1.97316,0.282644 3.73696,0.282644 4.69651,0 4.36607,0.699244 4.36607,-9.239611 0,-9.976756 -0.36477,-9.239612 4.57237,-9.239612 5.11266,0 4.70132,-0.781181 4.70132,8.928307 0,7.68587 0.0257,8.061895 0.60062,8.790132 l 0.60064,0.760784 h 7.82269 c 7.69867,0 8.71565,0.107329 9.3016,0.981623 0.1171,0.174732 0.21491,5.973314 0.21735,12.885732 0.004,10.912569 -0.055,12.652561 -0.44669,13.209753 -0.44717,0.636093 -0.51955,0.641724 -8.24573,0.641724 -5.09528,0 -8.03914,0.111018 -8.50081,0.320578 -1.24691,0.566059 -1.34967,1.274224 -1.34967,9.30148 0,6.387495 -0.0708,7.674229 -0.45115,8.21544 l -0.45113,0.641724 h -12.87976 c -12.49338,0 -12.89717,-0.01731 -13.45938,-0.577477 -0.55194,-0.549906 -0.5796,-0.962457 -0.5796,-8.64118 V 66.89052 l -0.7636,-0.598433 c -0.64608,-0.506352 -1.17006,-0.598184 -3.40517,-0.596822 -2.12935,0.0015 -4.6677,0.347649 -4.84896,0.661622 -0.0187,0.03223 -0.0771,3.809036 -0.13,8.392888 -0.0851,7.365957 -0.15364,8.397527 -0.59068,8.878687 -0.47372,0.521531 -1.20445,0.544416 -17.38418,0.544416 -9.992322,0 -17.186019,0.112268 -17.615393,0.274916 -0.399162,0.151204 -0.871812,0.546833 -1.050334,0.879177 -0.231727,0.431397 -0.319545,6.774881 -0.306976,22.174459 l 0.0176,21.5702 0.740222,0.64965 c 0.728975,0.63979 0.86023,0.64966 8.638235,0.64966 6.360922,0 8.007496,0.0797 8.460576,0.40956 0.53051,0.38622 0.56798,0.88752 0.65825,8.80634 0.0936,8.20186 0.11011,8.4069 0.71652,8.83007 0.51554,0.3598 1.97815,0.43326 8.6259,0.43326 7.60289,0 8.03111,0.0286 8.52297,0.57016 0.48177,0.53042 0.51605,1.45978 0.49115,13.3187 -0.0241,11.55497 -0.0728,12.79914 -0.5179,13.28925 -0.45754,0.50371 -1.0413,0.54071 -8.5286,0.54071 -9.028,0 -9.1772,0.0324 -9.30172,2.02117 -0.18889,3.01654 0.0579,6.32801 0.50487,6.77331 0.41409,0.41254 1.85124,0.45361 13.35445,0.38152 12.37574,-0.0776 12.90684,-0.10307 13.30157,-0.64124 0.33169,-0.45212 0.4112,-2.11275 0.4112,-8.58994 0,-7.6445 0.0278,-8.05716 0.5796,-8.60695 0.55154,-0.54954 0.966,-0.57747 8.56232,-0.57747 h 7.98276 l 0.71132,-0.70872 0.71133,-0.70874 v -7.95339 c 0,-7.56843 0.028,-7.98137 0.57961,-8.5309 0.55155,-0.54953 0.96602,-0.57747 8.56235,-0.57747 h 7.98271 l 0.71136,-0.70873 0.71133,-0.70872 v -12.44198 -12.44197 l -0.73535,-0.73266 c -0.71774,-0.71507 -0.81816,-0.73034 -4.18847,-0.63653 -2.33126,0.0648 -3.57521,0.21787 -3.82902,0.47091 -0.2837,0.28281 -0.41148,2.43155 -0.52083,8.75809 -0.13611,7.87434 -0.17905,8.40815 -0.70745,8.79263 -0.45284,0.32953 -2.09949,0.40934 -8.4446,0.40934 -7.32688,0 -7.93027,0.0388 -8.56625,0.55161 l -0.68415,0.5516 -0.0857,8.17454 c -0.0738,7.02786 -0.15111,8.24658 -0.55208,8.68802 -0.40067,0.44111 -0.98844,0.51345 -4.17247,0.51345 -3.50123,0 -3.73101,-0.0356 -4.15721,-0.64171 -0.39597,-0.56327 -0.45115,-2.73067 -0.45115,-17.72539 0,-20.32854 0.4113,-18.39236 -3.94002,-18.54885 -1.55848,-0.056 -3.31337,0.0414 -3.90133,0.21712 -0.95877,0.2862 -1.08869,0.44412 -1.26397,1.53611 -0.10742,0.6694 -0.1738,4.4424 -0.14746,8.38445 0.0434,6.49755 -1.7e-4,7.22019 -0.46614,7.73319 -0.45942,0.5058 -0.90738,0.56586 -4.22007,0.56586 -3.50122,0 -3.731,-0.0356 -4.15721,-0.64174 -0.3816,-0.54279 -0.45115,-1.85785 -0.45115,-8.53087 v -7.88917 l -0.71133,-0.70871 -0.71131,-0.70873 h -7.96204 c -8.570791,0 -8.649945,-0.0132 -9.028474,-1.53607 -0.08607,-0.34621 -0.11887,-6.19461 -0.07289,-12.99648 0.0805,-11.910329 0.104635,-12.382312 0.653166,-12.78176 0.489514,-0.35647 6.899518,-0.412552 45.609308,-0.399074 50.46047,0.01756 45.84092,0.229685 46.34473,-2.12804 0.29481,-1.379701 -0.0961,-6.240849 -0.53705,-6.681222 -0.17605,-0.175749 -3.63204,-0.348746 -8.70617,-0.435806 -7.90336,-0.135605 -8.43915,-0.178396 -8.82502,-0.704848 -0.29859,-0.407329 -0.41087,-1.474597 -0.41087,-3.905898 0,-5.035555 -0.80165,-4.628867 9.12417,-4.628867 h 8.22191 l 0.60062,-0.760783 c 0.57442,-0.727567 0.60066,-1.105756 0.60066,-8.662133 0,-9.765074 -0.35784,-9.056303 4.57234,-9.056303 2.62012,0 3.5628,0.104436 4.05724,0.449479 l 0.64408,0.449479 v 40.650908 c 0,39.015228 -0.0214,40.670148 -0.52997,41.128788 -0.4339,0.39122 -1.18251,0.47703 -4.12967,0.47341 -1.97986,-0.002 -3.79535,-0.12754 -4.03442,-0.27806 -0.37596,-0.23664 -0.4543,-2.63957 -0.5796,-17.77813 l -0.1449,-17.50449 -0.81662,-0.69968 -0.81663,-0.69966 -40.08757,0.0751 c -38.1456,0.0715 -40.11551,0.10036 -40.6643,0.59523 -0.3172,0.28602 -0.65347,0.90232 -0.74726,1.36957 -0.28797,1.43458 0.14869,6.34269 0.60474,6.79706 0.34441,0.34313 3.18209,0.40856 17.72211,0.40856 14.4837,0 17.40397,0.0668 17.87461,0.4093 0.52802,0.38422 0.57143,0.9173 0.70744,8.68815 l 0.1449,8.27883 0.71242,0.57427 c 0.63895,0.51506 1.06741,0.56447 4.15363,0.4793 3.00741,-0.0831 3.49298,-0.16566 3.85197,-0.65548 0.33114,-0.45183 0.41075,-2.11681 0.41075,-8.58996 0,-7.64448 0.0277,-8.05715 0.5796,-8.60693 0.56205,-0.55998 0.96603,-0.57748 13.3309,-0.57748 12.36491,0 12.76887,0.0175 13.33093,0.57748 0.5694,0.56732 0.57958,0.96245 0.57958,22.48956 0,20.44596 -0.0339,21.95252 -0.50713,22.51636 -0.49007,0.58386 -0.78763,0.60684 -8.82493,0.68163 -6.34809,0.0591 -8.40688,0.16616 -8.69407,0.45221 -0.28407,0.28298 -0.41181,2.42028 -0.5212,8.72058 -0.10933,6.29755 -0.23721,8.43773 -0.52099,8.72045 -0.28331,0.28223 -2.4072,0.41024 -8.61183,0.51901 -7.40024,0.12971 -8.28825,0.19661 -8.7527,0.65952 -0.46767,0.46606 -0.52434,1.29178 -0.59475,8.66213 -0.0752,7.86468 -0.0988,8.16449 -0.68416,8.65228 -0.57104,0.47599 -2.95254,0.50538 -40.969506,0.50538 -39.32621,0 -40.38079,-0.0143 -41.047372,-0.55263 z"
       id="path3"
       sodipodi:nodetypes="scccssssssssscssscccsssscccssssssssssssssscsssscccsssssscsssccssssccccsssssscccssscscssssscssscsssscccccccssccsssssscsssscsssscsssssssssssssssssscccccccccssssssscccsssssssssscccssscsssssssssssscsssssssssssscccssssssssccsscssssscssscssssssssscssccssccssssssssscccssscccccsssssssccssssccsssssscccssssssssssscsssscsscssccccsssssscsssssssssssssssssss" /></g></svg>
