<?xml version="1.0" encoding="UTF-8" standalone="no"?>
<!-- Created with Inkscape (http://www.inkscape.org/) -->

<svg
   width="196mm"
   height="196mm"
   viewBox="0 0 196 196"
   version="1.1"
   id="svg1"
   inkscape:version="1.3.2 (091e20e, 2023-11-25, custom)"
   sodipodi:docname="pixel_circle.svg"
   xmlns:inkscape="http://www.inkscape.org/namespaces/inkscape"
   xmlns:sodipodi="http://sodipodi.sourceforge.net/DTD/sodipodi-0.dtd"
   xmlns="http://www.w3.org/2000/svg"
   xmlns:svg="http://www.w3.org/2000/svg">
  <sodipodi:namedview
     id="namedview1"
     pagecolor="#ffffff"
     bordercolor="#000000"
     borderopacity="0.25"
     inkscape:showpageshadow="2"
     inkscape:pageopacity="0.0"
     inkscape:pagecheckerboard="false"
     inkscape:deskcolor="#d1d1d1"
     inkscape:document-units="mm"
     showgrid="true"
     inkscape:zoom="0.72426345"
     inkscape:cx="167.06628"
     inkscape:cy="448.04139"
     inkscape:window-width="1920"
     inkscape:window-height="1009"
     inkscape:window-x="-8"
     inkscape:window-y="-8"
     inkscape:window-maximized="1"
     inkscape:current-layer="g40">
    <inkscape:grid
       id="grid1"
       units="mm"
       originx="0"
       originy="0"
       spacingx="14"
       spacingy="14"
       empcolor="#0099e5"
       empopacity="0.30196078"
       color="#0099e5"
       opacity="0.14901961"
       empspacing="5"
       dotted="false"
       gridanglex="30"
       gridanglez="30"
       visible="true"
       enabled="false" />
  </sodipodi:namedview>
  <defs
     id="defs1">
    <inkscape:path-effect
       effect="offset"
       id="path-effect42"
       is_visible="true"
       lpeversion="1.2"
       linejoin_type="miter"
       unit="mm"
       offset="0"
       miter_limit="4"
       attempt_force_join="false"
       update_on_knot_move="true" />
    <inkscape:path-effect
       effect="offset"
       id="path-effect6"
       is_visible="true"
       lpeversion="1.2"
       linejoin_type="miter"
       unit="mm"
       offset="0"
       miter_limit="4"
       attempt_force_join="false"
       update_on_knot_move="true" />
    <inkscape:path-effect
       effect="offset"
       id="path-effect1"
       is_visible="true"
       lpeversion="1.2"
       linejoin_type="miter"
       unit="mm"
       offset="0"
       miter_limit="4"
       attempt_force_join="false"
       update_on_knot_move="true" />
    <mask
       maskUnits="userSpaceOnUse"
       id="mask6">
      <path
         style="fill:#ffffff;fill-opacity:1;stroke:none;stroke-width:1.00004;stroke-linecap:round;stroke-linejoin:round"
         d="M -9.6095344e-4,69.768765 V 126.31482 L 13.999039,126 v 28 l 14.00131,0.16424 L 27.99929,168 h 14.000002 v 14 h 27.999999 v 14 h 55.999999 v -14 h 28 v -14 h 14 v -14 l 14.00133,0.16424 L 181.99956,126 196.00084,126.19744 195.99979,70 H 181.99996 V 42.000001 h -14 l 0.001,-13.835759 L 154.00002,28 V 14.000001 H 125.99996 V 6.9632568e-7 H 69.961278 L 69.999979,14.000001 41.99736,13.671517 42.00035,28 H 28.000351 V 42.000001 H 14.000359 V 70 Z"
         id="path6"
         sodipodi:nodetypes="ccccccccccccccccccccccccccccccccccccc" />
    </mask>
  </defs>
  <g
     inkscape:label="Layer 1"
     inkscape:groupmode="layer"
     id="layer1"
     style="display:none">
    <g
       id="g6"
       mask="url(#mask6)"
       inkscape:path-effect="#path-effect6">
      <path
         style="fill:#1f0d49;fill-opacity:1;stroke:none;stroke-width:1.00004;stroke-linecap:round;stroke-linejoin:round"
         d="M 0,69.768764 V 126.31482 L 14,126 v 28 L 28.001307,154.16424 28,168 h 14.000001 v 14 h 28 v 14 H 126 v -14 h 28 v -14 h 14 v -14 l 14.00133,0.16424 L 182,126 196.00128,126.19744 196,70.000001 h -14 v -28 H 168 L 168.001,28.164241 154,28 V 14 H 126 V 0 H 69.961319 L 70.000001,14 41.997384,13.671516 42.000001,28 H 28 V 42.000001 H 14 v 28 z"
         id="path1"
         sodipodi:nodetypes="ccccccccccccccccccccccccccccccccccccc"
         inkscape:original-d="M 0,69.768764 V 126.31482 L 14,126 v 28 L 28.001307,154.16424 28,168 h 14.000001 v 14 h 28 v 14 H 126 v -14 h 28 v -14 h 14 v -14 l 14.00133,0.16424 L 182,126 196.00128,126.19744 196,70.000001 h -14 v -28 H 168 L 168.001,28.164241 154,28 V 14 H 126 V 0 H 69.961319 L 70.000001,14 41.997384,13.671516 42.000001,28 H 28 V 42.000001 H 14 v 28 z" />
      <path
         style="fill:#5d0087;fill-opacity:1;stroke-width:1;stroke-linecap:round;stroke-linejoin:round"
         id="rect6-48"
         width="27.999998"
         height="27.999998"
         x="27.961319"
         y="126"
         sodipodi:type="rect"
         d="m 27.961319,126 h 27.999998 v 28 H 27.961319 Z" />
      <path
         style="fill:#4931b4;fill-opacity:1;stroke-width:1;stroke-linecap:round;stroke-linejoin:round"
         id="rect5-1"
         width="27.999998"
         height="27.999998"
         x="140"
         y="140"
         sodipodi:type="rect"
         d="m 140,140 h 28 v 28 h -28 z" />
      <path
         style="fill:#4931b4;fill-opacity:1;stroke-width:1;stroke-linecap:round;stroke-linejoin:round"
         id="rect5-7"
         width="27.999998"
         height="27.999998"
         x="84"
         y="84"
         sodipodi:type="rect"
         d="m 84,84 h 28 v 28 H 84 Z" />
      <path
         style="fill:#af00fe;fill-opacity:1;stroke-width:1;stroke-linecap:round;stroke-linejoin:round"
         id="rect4-7"
         width="27.999998"
         height="27.999998"
         x="0"
         y="98.041794"
         sodipodi:type="rect"
         d="M 0,98.041794 H 27.999998 V 126.04179 H 0 Z" />
      <path
         style="fill:#af00fe;fill-opacity:1;stroke-width:1;stroke-linecap:round;stroke-linejoin:round"
         id="rect4-6"
         width="27.999998"
         height="27.999998"
         x="140.00967"
         y="84.000015"
         sodipodi:type="rect"
         d="m 140.00967,84.000015 h 28 v 27.999995 h -28 z" />
      <path
         style="fill:#af00fe;fill-opacity:1;stroke-width:1;stroke-linecap:round;stroke-linejoin:round"
         id="rect4-9"
         width="27.999998"
         height="27.999998"
         x="168"
         y="98"
         sodipodi:type="rect"
         d="m 168,98 h 28 v 28 h -28 z" />
      <path
         style="fill:#af00fe;fill-opacity:1;stroke-width:1;stroke-linecap:round;stroke-linejoin:round"
         id="rect4-28"
         width="27.999998"
         height="27.999998"
         x="69.980659"
         y="154"
         sodipodi:type="rect"
         d="m 69.980659,154 h 27.999999 v 28 H 69.980659 Z" />
      <path
         style="fill:#d300ce;fill-opacity:1;stroke-width:1;stroke-linecap:round;stroke-linejoin:round"
         id="rect2"
         width="28.019342"
         height="28"
         x="97.990334"
         y="4.9046105e-07"
         rx="0"
         ry="0"
         sodipodi:type="rect"
         d="M 97.990334,4.9046105e-7 H 126.00968 V 28 H 97.990334 Z" />
      <path
         style="fill:#d300ce;fill-opacity:1;stroke-width:1;stroke-linecap:round;stroke-linejoin:round"
         id="rect2-8"
         width="28.019342"
         height="28"
         x="84"
         y="56.000004"
         rx="0"
         ry="0"
         sodipodi:type="rect"
         d="m 84,56.000004 h 28.01934 v 28 H 84 Z" />
      <path
         style="fill:#d300ce;fill-opacity:1;stroke-width:1;stroke-linecap:round;stroke-linejoin:round"
         id="rect2-8-0"
         width="28.019342"
         height="28"
         x="111.99033"
         y="140"
         rx="0"
         ry="0"
         sodipodi:type="rect"
         d="m 111.99033,140 h 28.01935 v 28 h -28.01935 z" />
      <path
         style="fill:#d300ce;fill-opacity:1;stroke-width:1;stroke-linecap:round;stroke-linejoin:round"
         id="rect2-8-7"
         width="28.019342"
         height="28"
         x="55.990322"
         y="140.08359"
         rx="0"
         ry="0"
         sodipodi:type="rect"
         d="m 55.990322,140.08359 h 28.019343 v 28 H 55.990322 Z" />
      <path
         style="fill:#af00fe;fill-opacity:1;stroke-width:1;stroke-linecap:round;stroke-linejoin:round"
         id="rect4"
         width="27.999998"
         height="27.999998"
         x="84"
         y="27.999998"
         sodipodi:type="rect"
         d="m 84,27.999998 h 28 V 55.999996 H 84 Z" />
      <path
         style="fill:#af00fe;fill-opacity:1;stroke-width:1;stroke-linecap:round;stroke-linejoin:round"
         id="rect4-2"
         width="27.999998"
         height="27.999998"
         x="56"
         y="56"
         sodipodi:type="rect"
         d="M 56,56 H 83.999998 V 83.999998 H 56 Z" />
      <path
         style="fill:#d300ce;fill-opacity:1;stroke-width:1;stroke-linecap:round;stroke-linejoin:round"
         id="rect2-0"
         width="28.019342"
         height="28"
         x="41.99033"
         y="154"
         rx="0"
         ry="0"
         sodipodi:type="rect"
         d="m 41.99033,154 h 28.019342 v 28 H 41.99033 Z" />
      <path
         style="fill:#d300ce;fill-opacity:1;stroke-width:1;stroke-linecap:round;stroke-linejoin:round"
         id="rect2-7"
         width="28.019342"
         height="28"
         x="14"
         y="140"
         rx="0"
         ry="0"
         sodipodi:type="rect"
         d="m 14,140 h 28.019342 v 28 H 14 Z" />
      <path
         style="fill:#d300ce;fill-opacity:1;stroke-width:1;stroke-linecap:round;stroke-linejoin:round"
         id="rect2-1"
         width="28.019342"
         height="28"
         x="140"
         y="112.00001"
         rx="0"
         ry="0"
         sodipodi:type="rect"
         d="m 140,112.00001 h 28.01934 v 28 H 140 Z" />
      <path
         style="fill:#d300ce;fill-opacity:1;stroke-width:1;stroke-linecap:round;stroke-linejoin:round"
         id="rect2-6"
         width="28.019342"
         height="28"
         x="27.980656"
         y="70"
         rx="0"
         ry="0"
         sodipodi:type="rect"
         d="M 27.980656,70 H 55.999998 V 98 H 27.980656 Z" />
      <path
         style="fill:#4931b4;fill-opacity:1;stroke-width:1;stroke-linecap:round;stroke-linejoin:round"
         id="rect5"
         width="27.999998"
         height="27.999998"
         x="56"
         y="112"
         sodipodi:type="rect"
         d="m 56,112 h 27.999998 v 28 H 56 Z" />
      <path
         style="fill:#4931b4;fill-opacity:1;stroke-width:1;stroke-linecap:round;stroke-linejoin:round"
         id="rect5-84"
         width="27.999998"
         height="27.999998"
         x="69.980659"
         y="182"
         sodipodi:type="rect"
         d="m 69.980659,182 h 27.999999 v 28 H 69.980659 Z" />
      <path
         style="fill:#4931b4;fill-opacity:1;stroke-width:1;stroke-linecap:round;stroke-linejoin:round"
         id="rect5-9"
         width="27.999998"
         height="27.999998"
         x="70"
         y="1.4441354e-06"
         sodipodi:type="rect"
         d="M 70,1.4441354e-6 H 97.999998 V 28 H 70 Z" />
      <path
         style="fill:#4931b4;fill-opacity:1;stroke-width:1;stroke-linecap:round;stroke-linejoin:round"
         id="rect5-8"
         width="27.999998"
         height="27.999998"
         x="56"
         y="84"
         sodipodi:type="rect"
         d="m 56,84 h 27.999998 v 28 H 56 Z" />
      <path
         style="fill:#4931b4;fill-opacity:1;stroke-width:1;stroke-linecap:round;stroke-linejoin:round"
         id="rect5-0"
         width="27.999998"
         height="27.999998"
         x="168"
         y="70.000008"
         sodipodi:type="rect"
         d="m 168,70.000008 h 28 v 27.999998 h -28 z" />
      <path
         style="fill:#5d0087;fill-opacity:1;stroke-width:1;stroke-linecap:round;stroke-linejoin:round"
         id="rect6"
         width="27.999998"
         height="27.999998"
         x="84"
         y="112"
         sodipodi:type="rect"
         d="m 84,112 h 28 v 28 H 84 Z" />
      <path
         style="fill:#5d0087;fill-opacity:1;stroke-width:1;stroke-linecap:round;stroke-linejoin:round"
         id="rect6-4"
         width="27.999998"
         height="27.999998"
         x="112"
         y="112.00001"
         sodipodi:type="rect"
         d="m 112,112.00001 h 28 v 28 h -28 z" />
      <path
         style="fill:#5d0087;fill-opacity:1;stroke-width:1;stroke-linecap:round;stroke-linejoin:round"
         id="rect6-9"
         width="27.999998"
         height="27.999998"
         x="168"
         y="126"
         sodipodi:type="rect"
         d="m 168,126 h 28 v 28 h -28 z" />
      <path
         style="fill:#5d0087;fill-opacity:1;stroke-width:1;stroke-linecap:round;stroke-linejoin:round"
         id="rect6-42"
         width="27.999998"
         height="27.999998"
         x="98"
         y="168"
         sodipodi:type="rect"
         d="m 98,168 h 28 v 28 H 98 Z" />
      <path
         style="fill:#5d0087;fill-opacity:1;stroke-width:1;stroke-linecap:round;stroke-linejoin:round"
         id="rect6-91"
         width="27.999998"
         height="27.999998"
         x="112.01935"
         y="70.000015"
         sodipodi:type="rect"
         d="m 112.01935,70.000015 h 28 v 27.999998 h -28 z" />
      <path
         style="fill:#5d0087;fill-opacity:1;stroke-width:1;stroke-linecap:round;stroke-linejoin:round"
         id="rect6-7"
         width="27.999998"
         height="27.999998"
         x="140.01935"
         y="56.000023"
         sodipodi:type="rect"
         d="m 140.01935,56.000023 h 28 v 27.999998 h -28 z" />
      <path
         style="fill:#5d0087;fill-opacity:1;stroke-width:1;stroke-linecap:round;stroke-linejoin:round"
         id="rect6-2"
         width="27.999998"
         height="27.999998"
         x="-14"
         y="70"
         sodipodi:type="rect"
         d="M -14,70 H 13.999998 V 97.999998 H -14 Z" />
      <path
         style="fill:#5d0087;fill-opacity:1;stroke-width:1;stroke-linecap:round;stroke-linejoin:round"
         id="rect6-3"
         width="27.999998"
         height="27.999998"
         x="27.999998"
         y="84.041794"
         sodipodi:type="rect"
         d="M 27.999998,84.041794 H 55.999996 V 112.04179 H 27.999998 Z" />
      <path
         style="fill:#5d0087;fill-opacity:1;stroke-width:1;stroke-linecap:round;stroke-linejoin:round"
         id="rect6-1"
         width="27.999998"
         height="27.999998"
         x="112.00967"
         y="14"
         sodipodi:type="rect"
         d="m 112.00967,14 h 27.99999 v 27.999998 h -27.99999 z" />
      <path
         style="fill:#5d0087;fill-opacity:1;stroke-width:1;stroke-linecap:round;stroke-linejoin:round"
         id="rect6-8"
         width="27.999998"
         height="27.999998"
         x="27.990328"
         y="27.999998"
         sodipodi:type="rect"
         d="M 27.990328,27.999998 H 55.990326 V 55.999996 H 27.990328 Z" />
      <path
         style="fill:#d300ce;fill-opacity:1;stroke-width:1;stroke-linecap:round;stroke-linejoin:round"
         id="rect2-8-9"
         width="28.019342"
         height="28"
         x="139.99033"
         y="14"
         rx="0"
         ry="0"
         sodipodi:type="rect"
         d="m 139.99033,14 h 28.01934 v 28 h -28.01934 z" />
    </g>
  </g>
  <g
     inkscape:label="rotated"
     inkscape:groupmode="layer"
     id="g41"
     transform="matrix(0.90385881,0.39113493,-0.39116876,0.90378065,46.22568,-27.364316)">
    <g
       id="g40"
       mask="url(#mask6)"
       inkscape:path-effect="#path-effect42"
       transform="matrix(0.98410528,2.273738e-4,2.2737381e-4,0.98453226,2.4017096,-0.57405644)">
      <path
         style="fill:#fffcf8;fill-opacity:1;stroke:none;stroke-width:2.06316062;stroke-linecap:round;stroke-linejoin:round;stroke-opacity:1;stroke-dasharray:none"
         d="M 0,69.768764 V 126.31482 L 14,126 v 28 L 28.001307,154.16424 28,168 h 14.000001 v 14 h 28 v 14 H 126 v -14 h 28 v -14 h 14 v -14 l 14.00133,0.16424 L 182,126 196.00128,126.19744 196,70.000001 h -14 v -28 H 168 L 168.001,28.164241 154,28 V 14 H 126 V 0 H 69.961319 L 70.000001,14 41.997384,13.671516 42.000001,28 H 28 V 42.000001 H 14 v 28 z"
         id="path7"
         sodipodi:nodetypes="ccccccccccccccccccccccccccccccccccccc"
         inkscape:original-d="M 0,69.768764 V 126.31482 L 14,126 v 28 L 28.001307,154.16424 28,168 h 14.000001 v 14 h 28 v 14 H 126 v -14 h 28 v -14 h 14 v -14 l 14.00133,0.16424 L 182,126 196.00128,126.19744 196,70.000001 h -14 v -28 H 168 L 168.001,28.164241 154,28 V 14 H 126 V 0 H 69.961319 L 70.000001,14 41.997384,13.671516 42.000001,28 H 28 V 42.000001 H 14 v 28 z" />
      <path
         style="fill:#bdffd1;fill-opacity:1;stroke-width:1;stroke-linecap:round;stroke-linejoin:round"
         id="path8"
         width="27.999998"
         height="27.999998"
         x="27.961319"
         y="126"
         sodipodi:type="rect"
         d="m 27.961319,126 h 27.999998 v 28 H 27.961319 Z" />
      <path
         style="fill:#000927;fill-opacity:1;stroke-width:1;stroke-linecap:round;stroke-linejoin:round"
         id="path9"
         width="27.999998"
         height="27.999998"
         x="140"
         y="140"
         sodipodi:type="rect"
         d="m 140,140 h 28 v 28 h -28 z" />
      <path
         id="path10"
         style="fill:#000927;fill-opacity:1;stroke-width:1;stroke-linecap:round;stroke-linejoin:round"
         d="m 56.000275,84.000016 -1.16e-4,27.999944 -1.16e-4,27.99993 28.000037,-1.6e-4 1.16e-4,-27.99994 27.999544,4e-5 1.2e-4,-27.999938 -28.000038,1.68e-4 z"
         inkscape:original-d="M 56.000275 84.000016 L 56.000159 111.99996 L 56.000043 139.99989 L 84.00008 139.99973 L 84.000196 111.99979 L 111.99974 111.99983 L 111.99986 83.999892 L 83.999822 84.00006 L 56.000275 84.000016 z " />
      <path
         style="fill:#dadbff;fill-opacity:1;stroke-width:1;stroke-linecap:round;stroke-linejoin:round"
         id="path11"
         width="27.999998"
         height="27.999998"
         x="0"
         y="98.041794"
         sodipodi:type="rect"
         d="M 0,98.041794 H 27.999998 V 126.04179 H 0 Z" />
      <path
         id="path12"
         style="fill:#dadbff;fill-opacity:1;stroke-width:1;stroke-linecap:round;stroke-linejoin:round"
         d="m 140.00991,84.000036 -1.2e-4,27.999944 h 27.99024 l 5e-5,14.00022 28.00003,-1.7e-4 1.2e-4,-27.999939 -27.99045,-4.98e-4 -3.2e-4,-13.999513 z"
         inkscape:original-d="M 140.00991 84.000036 L 140.00979 111.99998 L 168.00003 111.99998 L 168.00008 126.0002 L 196.00011 126.00003 L 196.00023 98.000091 L 168.00978 97.999593 L 168.00946 84.00008 L 140.00991 84.000036 z " />
      <path
         style="fill:#dadbff;fill-opacity:1;stroke-width:1;stroke-linecap:round;stroke-linejoin:round"
         id="path14"
         width="27.999998"
         height="27.999998"
         x="69.980659"
         y="154"
         sodipodi:type="rect"
         d="m 69.980659,154 h 27.999999 v 28 H 69.980659 Z" />
      <path
         style="fill:#ffe0e0;fill-opacity:1;stroke-width:1;stroke-linecap:round;stroke-linejoin:round"
         id="path15"
         width="28.019342"
         height="28"
         x="97.990334"
         y="4.9046105e-07"
         rx="0"
         ry="0"
         sodipodi:type="rect"
         d="M 97.990334,4.9046105e-7 H 126.00968 V 28 H 97.990334 Z" />
      <path
         style="fill:#ffe0e0;fill-opacity:1;stroke-width:1;stroke-linecap:round;stroke-linejoin:round"
         id="path16"
         width="28.019342"
         height="28"
         x="84"
         y="56.000004"
         rx="0"
         ry="0"
         sodipodi:type="rect"
         d="m 84,56.000004 h 28.01934 v 28 H 84 Z" />
      <path
         style="fill:#ffe0e0;fill-opacity:1;stroke-width:1;stroke-linecap:round;stroke-linejoin:round"
         id="path17"
         width="28.019342"
         height="28"
         x="111.99033"
         y="140"
         rx="0"
         ry="0"
         sodipodi:type="rect"
         d="m 111.99033,140 h 28.01935 v 28 h -28.01935 z" />
      <path
         id="path18"
         style="fill:#ffe0e0;fill-opacity:1;stroke-width:0.99960132;stroke-linecap:round;stroke-linejoin:round;stroke-dasharray:none"
         d="m 14.000126,139.9998 -1.16e-4,27.99994 h 27.990236 l 4.8e-5,14.00022 28.019361,1.8e-4 9.2e-5,-13.91665 13.99988,2.6e-4 1.16e-4,-27.99994 -28.019361,-1.8e-4 -9.2e-5,13.91666 -13.970755,-1e-4 -4.8e-5,-14.00021 z"
         inkscape:original-d="M 14.000126 139.9998 L 14.00001 167.99974 L 41.990246 167.99974 L 41.990294 181.99996 L 70.009655 182.00014 L 70.009747 168.08349 L 84.009627 168.08375 L 84.009743 140.08381 L 55.990382 140.08363 L 55.99029 154.00029 L 42.019535 154.00019 L 42.019487 139.99998 L 14.000126 139.9998 z " />
      <path
         style="fill:#dadbff;fill-opacity:1;stroke-width:1;stroke-linecap:round;stroke-linejoin:round"
         id="path19"
         width="27.999998"
         height="27.999998"
         x="84"
         y="27.999998"
         sodipodi:type="rect"
         d="m 84,27.999998 h 28 V 55.999996 H 84 Z" />
      <path
         style="fill:#dadbff;fill-opacity:1;stroke-width:1;stroke-linecap:round;stroke-linejoin:round"
         id="path20"
         width="27.999998"
         height="27.999998"
         x="56"
         y="56"
         sodipodi:type="rect"
         d="M 56,56 H 83.999998 V 83.999998 H 56 Z" />
      <path
         style="fill:#ffe0e0;fill-opacity:1;stroke-width:1;stroke-linecap:round;stroke-linejoin:round"
         id="path23"
         width="28.019342"
         height="28"
         x="140"
         y="112.00001"
         rx="0"
         ry="0"
         sodipodi:type="rect"
         d="m 140,112.00001 h 28.01934 v 28 H 140 Z" />
      <path
         style="fill:#ffe0e0;fill-opacity:1;stroke-width:1;stroke-linecap:round;stroke-linejoin:round"
         id="path24"
         width="28.019342"
         height="28"
         x="27.980656"
         y="70"
         rx="0"
         ry="0"
         sodipodi:type="rect"
         d="M 27.980656,70 H 55.999998 V 98 H 27.980656 Z" />
      <path
         style="fill:#000927;fill-opacity:1;stroke-width:1;stroke-linecap:round;stroke-linejoin:round"
         id="path26"
         width="27.999998"
         height="27.999998"
         x="69.980659"
         y="182"
         sodipodi:type="rect"
         d="m 69.980659,182 h 27.999999 v 28 H 69.980659 Z" />
      <path
         style="fill:#000927;fill-opacity:1;stroke-width:1;stroke-linecap:round;stroke-linejoin:round"
         id="path27"
         width="27.999998"
         height="27.999998"
         x="70"
         y="1.4441354e-06"
         sodipodi:type="rect"
         d="M 70,1.4441354e-6 H 97.999998 V 28 H 70 Z" />
      <path
         style="fill:#000927;fill-opacity:1;stroke-width:1;stroke-linecap:round;stroke-linejoin:round"
         id="path29"
         width="27.999998"
         height="27.999998"
         x="168"
         y="70.000008"
         sodipodi:type="rect"
         d="m 168,70.000008 h 28 v 27.999998 h -28 z" />
      <path
         id="path30"
         style="fill:#bdffd1;fill-opacity:1;stroke-width:1;stroke-linecap:round;stroke-linejoin:round"
         d="m 84.000196,111.99979 -1.16e-4,27.99994 27.99976,5.3e-4 28.00004,-1.7e-4 1.1e-4,-27.99994 -28.00025,-3.2e-4 z"
         inkscape:original-d="M 84.000196 111.99979 L 84.00008 139.99973 L 111.99984 140.00026 L 139.99988 140.00009 L 139.99999 112.00015 L 111.99974 111.99983 L 84.000196 111.99979 z " />
      <path
         style="fill:#bdffd1;fill-opacity:1;stroke-width:1;stroke-linecap:round;stroke-linejoin:round"
         id="path32"
         width="27.999998"
         height="27.999998"
         x="168"
         y="126"
         sodipodi:type="rect"
         d="m 168,126 h 28 v 28 h -28 z" />
      <path
         style="fill:#bdffd1;fill-opacity:1;stroke-width:1;stroke-linecap:round;stroke-linejoin:round"
         id="path33"
         width="27.999998"
         height="27.999998"
         x="98"
         y="168"
         sodipodi:type="rect"
         d="m 98,168 h 28 v 28 H 98 Z" />
      <path
         id="path34"
         style="fill:#bdffd1;fill-opacity:1;stroke-width:1;stroke-linecap:round;stroke-linejoin:round"
         d="m 140.01934,56.000132 -1.7e-4,13.999725 -28.00003,1.68e-4 3.7e-4,27.999728 27.99976,5.32e-4 -5e-5,-14.000214 28.00004,-1.68e-4 1.1e-4,-27.999939 z"
         inkscape:original-d="M 140.01934 56.000132 L 140.01917 69.999857 L 112.01914 70.000025 L 112.01951 97.999753 L 140.01927 98.000285 L 140.01922 84.000071 L 168.01926 83.999903 L 168.01937 55.999964 L 140.01934 56.000132 z " />
      <path
         style="fill:#bdffd1;fill-opacity:1;stroke-width:1;stroke-linecap:round;stroke-linejoin:round"
         id="path36"
         width="27.999998"
         height="27.999998"
         x="-14"
         y="70"
         sodipodi:type="rect"
         d="M -14,70 H 13.999998 V 97.999998 H -14 Z" />
      <path
         style="fill:#bdffd1;fill-opacity:1;stroke-width:1;stroke-linecap:round;stroke-linejoin:round"
         id="path37"
         width="27.999998"
         height="27.999998"
         x="27.999998"
         y="84.041794"
         sodipodi:type="rect"
         d="M 27.999998,84.041794 H 55.999996 V 112.04179 H 27.999998 Z" />
      <path
         style="fill:#bdffd1;fill-opacity:1;stroke-width:1;stroke-linecap:round;stroke-linejoin:round"
         id="path38"
         width="27.999998"
         height="27.999998"
         x="112.00967"
         y="14"
         sodipodi:type="rect"
         d="m 112.00967,14 h 27.99999 v 27.999998 h -27.99999 z" />
      <path
         style="fill:#bdffd1;fill-opacity:1;stroke-width:1;stroke-linecap:round;stroke-linejoin:round"
         id="path39"
         width="27.999998"
         height="27.999998"
         x="27.990328"
         y="27.999998"
         sodipodi:type="rect"
         d="M 27.990328,27.999998 H 55.990326 V 55.999996 H 27.990328 Z" />
      <path
         style="fill:#ffe0e0;fill-opacity:1;stroke-width:1;stroke-linecap:round;stroke-linejoin:round"
         id="path40"
         width="28.019342"
         height="28"
         x="139.99033"
         y="14"
         rx="0"
         ry="0"
         sodipodi:type="rect"
         d="m 139.99033,14 h 28.01934 v 28 h -28.01934 z" />
    </g>
  </g>
</svg>
